Exo-Regular.ufo
<glyph name="parenleft" format="1">
  <advance width="347"/>
  <unicode hex="0028"/>
  <note>
    GF Latin Plus glyph
  </note>
  <outline>
    <contour>
      <point x="82" y="326" type="curve" smooth="yes"/>
      <point x="82" y="104"/>
      <point x="153" y="-58"/>
      <point x="251" y="-210" type="curve"/>
      <point x="325" y="-210" type="line"/>
      <point x="226" y="-39"/>
      <point x="161" y="120"/>
      <point x="161" y="326" type="curve" smooth="yes"/>
      <point x="161" y="531"/>
      <point x="233" y="701"/>
      <point x="324" y="860" type="curve"/>
      <point x="251" y="860" type="line"/>
      <point x="156" y="710"/>
      <point x="82" y="541"/>
    </contour>
  </outline>
</glyph>
<glyph name="parenright" format="1">
  <advance width="346"/>
  <unicode hex="0029"/>
  <note>
    GF Latin Plus glyph
  </note>
  <outline>
    <contour>
      <point x="22" y="-210" type="curve"/>
      <point x="96" y="-210" type="line"/>
      <point x="198" y="-52"/>
      <point x="264" y="108"/>
      <point x="264" y="325" type="curve" smooth="yes"/>
      <point x="264" y="546"/>
      <point x="199" y="703"/>
      <point x="96" y="860" type="curve"/>
      <point x="22" y="860" type="line"/>
      <point x="126" y="683"/>
      <point x="185" y="529"/>
      <point x="185" y="325" type="curve" smooth="yes"/>
      <point x="185" y="119"/>
      <point x="121" y="-43"/>
    </contour>
  </outline>
</glyph>
<glyph name="plus" format="1">
  <advance width="609"/>
  <unicode hex="002B"/>
  <note>
    GF Latin Plus glyph
  </note>
  <outline>
    <contour>
      <point x="80" y="323" type="line"/>
      <point x="528" y="323" type="line"/>
      <point x="528" y="389" type="line"/>
      <point x="80" y="389" type="line"/>
    </contour>
    <contour>
      <point x="337" y="132" type="line"/>
      <point x="337" y="580" type="line"/>
      <point x="271" y="580" type="line"/>
      <point x="271" y="132" type="line"/>
    </contour>
  </outline>
</glyph>
<glyph name="period" format="1">
  <advance width="200"/>
  <unicode hex="002E"/>
  <note>
    GF Latin Plus glyph
  </note>
  <outline>
    <contour>
      <point x="62" y="15" type="line" smooth="yes"/>
      <point x="62" y="6"/>
      <point x="69" y="-1"/>
      <point x="78" y="-1" type="curve" smooth="yes"/>
      <point x="122" y="-1" type="line" smooth="yes"/>
      <point x="132" y="-1"/>
      <point x="138" y="4"/>
      <point x="138" y="15" type="curve" smooth="yes"/>
      <point x="138" y="95" type="line" smooth="yes"/>
      <point x="138" y="105"/>
      <point x="133" y="111"/>
      <point x="122" y="111" type="curve" smooth="yes"/>
      <point x="78" y="111" type="line" smooth="yes"/>
      <point x="67" y="111"/>
      <point x="62" y="105"/>
      <point x="62" y="95" type="curve" smooth="yes"/>
    </contour>
  </outline>
</glyph>
<glyph name="zero" format="1">
  <advance width="655"/>
  <unicode hex="0030"/>
  <note>
    GF Latin Plus glyph
  </note>
  <outline>
    <contour>
      <point x="156" y="183" type="curve" smooth="yes"/>
      <point x="156" y="557" type="line" smooth="yes"/>
      <point x="156" y="629"/>
      <point x="200" y="670"/>
      <point x="272" y="670" type="curve" smooth="yes"/>
      <point x="387" y="670" type="line" smooth="yes"/>
      <point x="460" y="670"/>
      <point x="499" y="633"/>
      <point x="499" y="557" type="curve" smooth="yes"/>
      <point x="499" y="183" type="line" smooth="yes"/>
      <point x="499" y="112"/>
      <point x="466" y="69"/>
      <point x="384" y="69" type="curve" smooth="yes"/>
      <point x="274" y="69" type="line" smooth="yes"/>
      <point x="201" y="69"/>
      <point x="156" y="107"/>
    </contour>
    <contour>
      <point x="76" y="173" type="line" smooth="yes"/>
      <point x="76" y="51"/>
      <point x="153" y="-2"/>
      <point x="259" y="-2" type="curve" smooth="yes"/>
      <point x="402" y="-2" type="line" smooth="yes"/>
      <point x="509" y="-2"/>
      <point x="579" y="52"/>
      <point x="579" y="173" type="curve" smooth="yes"/>
      <point x="579" y="563" type="line" smooth="yes"/>
      <point x="579" y="669"/>
      <point x="525" y="742"/>
      <point x="402" y="742" type="curve" smooth="yes"/>
      <point x="259" y="742" type="line" smooth="yes"/>
      <point x="152" y="742"/>
      <point x="76" y="681"/>
      <point x="76" y="563" type="curve" smooth="yes"/>
    </contour>
  </outline>
</glyph>
<glyph name="two" format="1">
  <advance width="593"/>
  <unicode hex="0032"/>
  <note>
    GF Latin Plus glyph
  </note>
  <outline>
    <contour>
      <point x="80" y="667" type="line"/>
      <point x="280" y="667" type="line" smooth="yes"/>
      <point x="407" y="667"/>
      <point x="439" y="614"/>
      <point x="439" y="543" type="curve" smooth="yes"/>
      <point x="439" y="461"/>
      <point x="409" y="404"/>
      <point x="326" y="326" type="curve" smooth="yes"/>
      <point x="54" y="65" type="line"/>
      <point x="54" y="0" type="line"/>
      <point x="545" y="0" type="line"/>
      <point x="545" y="73" type="line"/>
      <point x="162" y="73" type="line"/>
      <point x="387" y="289" type="line" smooth="yes"/>
      <point x="480" y="378"/>
      <point x="518" y="449"/>
      <point x="518" y="552" type="curve" smooth="yes"/>
      <point x="518" y="665"/>
      <point x="465" y="742"/>
      <point x="297" y="742" type="curve" smooth="yes"/>
      <point x="217" y="742"/>
      <point x="141" y="734"/>
      <point x="80" y="728" type="curve"/>
    </contour>
  </outline>
</glyph>
<glyph name="three" format="1">
  <advance width="585"/>
  <unicode hex="0033"/>
  <note>
    GF Latin Plus glyph
  </note>
  <outline>
    <contour>
      <point x="68" y="667" type="line"/>
      <point x="278" y="667" type="line" smooth="yes"/>
      <point x="376" y="667"/>
      <point x="424" y="626"/>
      <point x="424" y="553" type="curve" smooth="yes"/>
      <point x="424" y="504" type="line" smooth="yes"/>
      <point x="424" y="436"/>
      <point x="375" y="411"/>
      <point x="303" y="408" type="curve" smooth="yes"/>
      <point x="117" y="400" type="line"/>
      <point x="117" y="342" type="line"/>
      <point x="306" y="335" type="line" smooth="yes"/>
      <point x="367" y="333"/>
      <point x="434" y="307"/>
      <point x="434" y="229" type="curve" smooth="yes"/>
      <point x="434" y="180" type="line" smooth="yes"/>
      <point x="434" y="89"/>
      <point x="370" y="68"/>
      <point x="284" y="68" type="curve" smooth="yes"/>
      <point x="43" y="68" type="line"/>
      <point x="43" y="7" type="line"/>
      <point x="111" y="-1"/>
      <point x="205" y="-6"/>
      <point x="310" y="-6" type="curve" smooth="yes"/>
      <point x="439" y="-6"/>
      <point x="514" y="55"/>
      <point x="514" y="168" type="curve" smooth="yes"/>
      <point x="514" y="219" type="line" smooth="yes"/>
      <point x="514" y="316"/>
      <point x="440" y="361"/>
      <point x="396" y="371" type="curve"/>
      <point x="436" y="379"/>
      <point x="502" y="414"/>
      <point x="502" y="506" type="curve" smooth="yes"/>
      <point x="502" y="569" type="line" smooth="yes"/>
      <point x="502" y="672"/>
      <point x="439" y="741"/>
      <point x="307" y="742" type="curve" smooth="yes"/>
      <point x="208" y="742"/>
      <point x="129" y="736"/>
      <point x="68" y="728" type="curve"/>
    </contour>
  </outline>
</glyph>
<glyph name="nine" format="1">
  <advance width="623"/>
  <unicode hex="0039"/>
  <note>
    GF Latin Plus glyph
  </note>
  <outline>
    <contour>
      <point x="474" y="390" type="curve"/>
      <point x="289" y="390" type="line" smooth="yes"/>
      <point x="198" y="390"/>
      <point x="144" y="406"/>
      <point x="144" y="489" type="curve" smooth="yes"/>
      <point x="144" y="567" type="line" smooth="yes"/>
      <point x="144" y="648"/>
      <point x="192" y="668"/>
      <point x="251" y="668" type="curve" smooth="yes"/>
      <point x="337" y="668" type="line" smooth="yes"/>
      <point x="425" y="668"/>
      <point x="474" y="612"/>
    </contour>
    <contour>
      <point x="553" y="369" type="curve" smooth="yes"/>
      <point x="553" y="667"/>
      <point x="475" y="740"/>
      <point x="350" y="740" type="curve" smooth="yes"/>
      <point x="236" y="740" type="line" smooth="yes"/>
      <point x="142" y="740"/>
      <point x="66" y="697"/>
      <point x="66" y="579" type="curve" smooth="yes"/>
      <point x="66" y="476" type="line" smooth="yes"/>
      <point x="66" y="364"/>
      <point x="138" y="322"/>
      <point x="271" y="322" type="curve" smooth="yes"/>
      <point x="327" y="322"/>
      <point x="414" y="324"/>
      <point x="474" y="332" type="curve"/>
      <point x="474" y="154"/>
      <point x="406" y="67"/>
      <point x="292" y="67" type="curve" smooth="yes"/>
      <point x="110" y="67" type="line"/>
      <point x="110" y="6" type="line"/>
      <point x="162" y="0"/>
      <point x="236" y="-5"/>
      <point x="293" y="-5" type="curve" smooth="yes"/>
      <point x="457" y="-5"/>
      <point x="553" y="105"/>
    </contour>
  </outline>
</glyph>
<glyph name="A" format="1">
  <advance width="674"/>
  <unicode hex="0041"/>
  <note>
    GF Latin Plus glyph
  </note>
  <outline>
    <contour>
      <point x="208" y="282" type="line"/>
      <point x="337" y="666" type="line"/>
      <point x="464" y="282" type="line"/>
    </contour>
    <contour>
      <point x="34" y="0" type="line"/>
      <point x="116" y="0" type="line"/>
      <point x="188" y="210" type="line"/>
      <point x="484" y="210" type="line"/>
      <point x="558" y="0" type="line"/>
      <point x="640" y="0" type="line"/>
      <point x="388" y="736" type="line"/>
      <point x="286" y="736" type="line"/>
    </contour>
    <contour>
      <point x="337" y="810" type="move" name="top"/>
    </contour>
    <contour>
      <point x="630" y="0" type="move" name="ogonek"/>
    </contour>
    <contour>
      <point x="337" y="-150" type="move" name="bottom"/>
    </contour>
  </outline>
</glyph>
<glyph name="F" format="1">
  <advance width="567"/>
  <unicode hex="0046"/>
  <note>
    GF Latin Plus glyph
  </note>
  <outline>
    <contour>
      <point x="77" y="0" type="line"/>
      <point x="157" y="0" type="line"/>
      <point x="157" y="314" type="line"/>
      <point x="486" y="319" type="line"/>
      <point x="486" y="380" type="line"/>
      <point x="157" y="385" type="line"/>
      <point x="157" y="576" type="line" smooth="yes"/>
      <point x="157" y="633"/>
      <point x="188" y="663"/>
      <point x="241" y="663" type="curve" smooth="yes"/>
      <point x="530" y="663" type="line"/>
      <point x="530" y="726" type="line"/>
      <point x="492" y="732"/>
      <point x="242" y="736"/>
      <point x="222" y="736" type="curve" smooth="yes"/>
      <point x="152" y="736"/>
      <point x="77" y="701"/>
      <point x="77" y="588" type="curve" smooth="yes"/>
    </contour>
    <contour>
      <point x="311" y="810" type="move" name="top"/>
    </contour>
  </outline>
</glyph>
<glyph name="K" format="1">
  <advance width="605"/>
  <unicode hex="004B"/>
  <note>
    GF Latin Plus glyph
  </note>
  <outline>
    <contour>
      <point x="77" y="0" type="line"/>
      <point x="157" y="0" type="line"/>
      <point x="157" y="331" type="line"/>
      <point x="286" y="331" type="line"/>
      <point x="490" y="0" type="line"/>
      <point x="575" y="0" type="line"/>
      <point x="349" y="368" type="line"/>
      <point x="572" y="736" type="line"/>
      <point x="488" y="736" type="line"/>
      <point x="286" y="403" type="line"/>
      <point x="157" y="403" type="line"/>
      <point x="157" y="736" type="line"/>
      <point x="77" y="736" type="line"/>
    </contour>
    <contour>
      <point x="293" y="810" type="move" name="top"/>
    </contour>
    <contour>
      <point x="293" y="-150" type="move" name="bottom"/>
    </contour>
  </outline>
</glyph>
<glyph name="M" format="1">
  <advance width="835"/>
  <unicode hex="004D"/>
  <note>
    GF Latin Plus glyph
  </note>
  <outline>
    <contour>
      <point x="57" y="0" type="line"/>
      <point x="134" y="0" type="line"/>
      <point x="205" y="644" type="line"/>
      <point x="190" y="642" type="line"/>
      <point x="381" y="0" type="line"/>
      <point x="454" y="0" type="line"/>
      <point x="640" y="643" type="line"/>
      <point x="627" y="645" type="line"/>
      <point x="701" y="0" type="line"/>
      <point x="778" y="0" type="line"/>
      <point x="692" y="736" type="line"/>
      <point x="610" y="736" type="line"/>
      <point x="418" y="100" type="line"/>
      <point x="222" y="736" type="line"/>
      <point x="141" y="736" type="line"/>
    </contour>
    <contour>
      <point x="414" y="810" type="move" name="top"/>
    </contour>
    <contour>
      <point x="414" y="-150" type="move" name="bottom"/>
    </contour>
  </outline>
</glyph>
<glyph name="O" format="1">
  <advance width="686"/>
  <unicode hex="004F"/>
  <note>
    GF Latin Plus glyph
  </note>
  <outline>
    <contour>
      <point x="138" y="365" type="curve" smooth="yes"/>
      <point x="138" y="634"/>
      <point x="204" y="670"/>
      <point x="343" y="670" type="curve" smooth="yes"/>
      <point x="490" y="670"/>
      <point x="548" y="634"/>
      <point x="548" y="365" type="curve" smooth="yes"/>
      <point x="548" y="107"/>
      <point x="491" y="65"/>
      <point x="343" y="65" type="curve" smooth="yes"/>
      <point x="190" y="65"/>
      <point x="138" y="107"/>
    </contour>
    <contour>
      <point x="59" y="365" type="curve" smooth="yes"/>
      <point x="59" y="44"/>
      <point x="153" y="-6"/>
      <point x="343" y="-6" type="curve" smooth="yes"/>
      <point x="533" y="-6"/>
      <point x="627" y="44"/>
      <point x="627" y="365" type="curve" smooth="yes"/>
      <point x="627" y="686"/>
      <point x="535" y="742"/>
      <point x="343" y="742" type="curve" smooth="yes"/>
      <point x="157" y="742"/>
      <point x="59" y="686"/>
    </contour>
    <contour>
      <point x="343" y="810" type="move" name="top"/>
    </contour>
    <contour>
      <point x="405" y="0" type="move" name="ogonek"/>
    </contour>
    <contour>
      <point x="343" y="-150" type="move" name="bottom"/>
    </contour>
  </outline>
</glyph>
<glyph name="R" format="1">
  <advance width="608"/>
  <unicode hex="0052"/>
  <note>
    GF Latin Plus glyph
  </note>
  <outline>
    <contour>
      <point x="77" y="0" type="line"/>
      <point x="157" y="0" type="line"/>
      <point x="157" y="305" type="line"/>
      <point x="200" y="303"/>
      <point x="309" y="302"/>
      <point x="345" y="301" type="curve"/>
      <point x="488" y="0" type="line"/>
      <point x="569" y="0" type="line"/>
      <point x="418" y="312" type="line"/>
      <point x="479" y="324"/>
      <point x="558" y="359"/>
      <point x="558" y="519" type="curve" smooth="yes"/>
      <point x="558" y="703"/>
      <point x="462" y="736"/>
      <point x="367" y="736" type="curve" smooth="yes"/>
      <point x="77" y="736" type="line"/>
    </contour>
    <contour>
      <point x="157" y="366" type="line"/>
      <point x="157" y="664" type="line"/>
      <point x="355" y="664" type="line" smooth="yes"/>
      <point x="420" y="664"/>
      <point x="479" y="642"/>
      <point x="479" y="519" type="curve" smooth="yes"/>
      <point x="479" y="390"/>
      <point x="423" y="366"/>
      <point x="355" y="366" type="curve" smooth="yes"/>
    </contour>
    <contour>
      <point x="293" y="810" type="move" name="top"/>
    </contour>
    <contour>
      <point x="295" y="-150" type="move" name="bottom"/>
    </contour>
  </outline>
</glyph>
<glyph name="S" format="1">
  <advance width="578"/>
  <unicode hex="0053"/>
  <note>
    GF Latin Plus glyph
  </note>
  <outline>
    <contour>
      <point x="60" y="508" type="line" smooth="yes"/>
      <point x="60" y="377"/>
      <point x="133" y="330"/>
      <point x="254" y="330" type="curve" smooth="yes"/>
      <point x="333" y="330" type="line" smooth="yes"/>
      <point x="410" y="330"/>
      <point x="443" y="293"/>
      <point x="443" y="226" type="curve" smooth="yes"/>
      <point x="443" y="176" type="line" smooth="yes"/>
      <point x="443" y="85"/>
      <point x="372" y="65"/>
      <point x="283" y="65" type="curve" smooth="yes"/>
      <point x="203" y="65"/>
      <point x="112" y="68"/>
      <point x="63" y="73" type="curve"/>
      <point x="63" y="12" type="line"/>
      <point x="114" y="2"/>
      <point x="227" y="-6"/>
      <point x="286" y="-6" type="curve" smooth="yes"/>
      <point x="414" y="-6"/>
      <point x="519" y="30"/>
      <point x="519" y="178" type="curve" smooth="yes"/>
      <point x="519" y="235" type="line" smooth="yes"/>
      <point x="519" y="334"/>
      <point x="463" y="406"/>
      <point x="342" y="406" type="curve" smooth="yes"/>
      <point x="257" y="406" type="line" smooth="yes"/>
      <point x="181" y="406"/>
      <point x="136" y="432"/>
      <point x="136" y="513" type="curve" smooth="yes"/>
      <point x="136" y="547" type="line" smooth="yes"/>
      <point x="136" y="645"/>
      <point x="191" y="670"/>
      <point x="282" y="670" type="curve" smooth="yes"/>
      <point x="347" y="670"/>
      <point x="426" y="665"/>
      <point x="486" y="660" type="curve"/>
      <point x="486" y="721" type="line"/>
      <point x="436" y="731"/>
      <point x="337" y="742"/>
      <point x="274" y="742" type="curve" smooth="yes"/>
      <point x="137" y="742"/>
      <point x="60" y="689"/>
      <point x="60" y="550" type="curve" smooth="yes"/>
    </contour>
    <contour>
      <point x="283" y="810" type="move" name="top"/>
    </contour>
    <contour>
      <point x="283" y="-150" type="move" name="bottom"/>
    </contour>
  </outline>
</glyph>
<glyph name="U" format="1">
  <advance width="676"/>
  <unicode hex="0055"/>
  <note>
    GF Latin Plus glyph
  </note>
  <outline>
    <contour>
      <point x="67" y="228" type="line" smooth="yes"/>
      <point x="67" y="45"/>
      <point x="173" y="-6"/>
      <point x="338" y="-6" type="curve" smooth="yes"/>
      <point x="503" y="-6"/>
      <point x="609" y="45"/>
      <point x="609" y="228" type="curve" smooth="yes"/>
      <point x="609" y="736" type="line"/>
      <point x="529" y="736" type="line"/>
      <point x="529" y="228" type="line" smooth="yes"/>
      <point x="529" y="102"/>
      <point x="459" y="66"/>
      <point x="338" y="66" type="curve" smooth="yes"/>
      <point x="217" y="66"/>
      <point x="147" y="102"/>
      <point x="147" y="228" type="curve" smooth="yes"/>
      <point x="147" y="736" type="line"/>
      <point x="67" y="736" type="line"/>
    </contour>
    <contour>
      <point x="334" y="810" type="move" name="top"/>
    </contour>
    <contour>
      <point x="412" y="0" type="move" name="ogonek"/>
    </contour>
    <contour>
      <point x="334" y="-150" type="move" name="bottom"/>
    </contour>
  </outline>
</glyph>
<glyph name="W" format="1">
  <advance width="991"/>
  <unicode hex="0057"/>
  <note>
    GF Latin Plus glyph
  </note>
  <outline>
    <contour>
      <point x="34" y="736" type="line"/>
      <point x="223" y="0" type="line"/>
      <point x="309" y="0" type="line"/>
      <point x="496" y="625" type="line"/>
      <point x="682" y="0" type="line"/>
      <point x="768" y="0" type="line"/>
      <point x="957" y="736" type="line"/>
      <point x="875" y="736" type="line"/>
      <point x="717" y="109" type="line"/>
      <point x="536" y="736" type="line"/>
      <point x="456" y="736" type="line"/>
      <point x="274" y="109" type="line"/>
      <point x="116" y="736" type="line"/>
    </contour>
    <contour>
      <point x="506" y="810" type="move" name="top"/>
    </contour>
  </outline>
</glyph>
<glyph name="d" format="1">
  <advance width="574"/>
  <unicode hex="0064"/>
  <note>
    GF Latin Plus glyph
  </note>
  <outline>
    <contour>
      <point x="136" y="266" type="curve" smooth="yes"/>
      <point x="136" y="430"/>
      <point x="177" y="479"/>
      <point x="280" y="479" type="curve" smooth="yes"/>
      <point x="335" y="479"/>
      <point x="375" y="467"/>
      <point x="423" y="453" type="curve"/>
      <point x="423" y="104" type="line"/>
      <point x="384" y="83"/>
      <point x="334" y="59"/>
      <point x="272" y="59" type="curve" smooth="yes"/>
      <point x="174" y="59"/>
      <point x="136" y="116"/>
    </contour>
    <contour>
      <point x="57" y="263" type="curve" smooth="yes"/>
      <point x="57" y="78"/>
      <point x="117" y="-6"/>
      <point x="249" y="-6" type="curve" smooth="yes"/>
      <point x="310" y="-6"/>
      <point x="393" y="27"/>
      <point x="423" y="54" type="curve"/>
      <point x="438" y="0" type="line"/>
      <point x="502" y="0" type="line"/>
      <point x="502" y="763" type="line"/>
      <point x="423" y="763" type="line"/>
      <point x="423" y="509" type="line"/>
      <point x="379" y="525"/>
      <point x="318" y="541"/>
      <point x="259" y="541" type="curve" smooth="yes"/>
      <point x="112" y="541"/>
      <point x="57" y="461"/>
    </contour>
    <contour>
      <point x="522" y="650" type="move" name="altcaron"/>
    </contour>
    <contour>
      <point x="462" y="850" type="move" name="top"/>
    </contour>
    <contour>
      <point x="287" y="-150" type="move" name="bottom"/>
    </contour>
  </outline>
</glyph>
<glyph name="f" format="1">
  <advance width="368"/>
  <unicode hex="0066"/>
  <note>
    GF Latin Plus glyph
  </note>
  <outline>
    <contour>
      <point x="23" y="469" type="line"/>
      <point x="105" y="469" type="line"/>
      <point x="105" y="0" type="line"/>
      <point x="184" y="0" type="line"/>
      <point x="184" y="469" type="line"/>
      <point x="350" y="469" type="line"/>
      <point x="350" y="534" type="line"/>
      <point x="184" y="534" type="line"/>
      <point x="184" y="599" type="line" smooth="yes"/>
      <point x="184" y="667"/>
      <point x="200" y="703"/>
      <point x="272" y="703" type="curve" smooth="yes"/>
      <point x="361" y="703" type="line"/>
      <point x="361" y="759" type="line"/>
      <point x="335" y="764"/>
      <point x="304" y="769"/>
      <point x="258" y="769" type="curve" smooth="yes"/>
      <point x="141" y="769"/>
      <point x="105" y="708"/>
      <point x="105" y="595" type="curve" smooth="yes"/>
      <point x="105" y="534" type="line"/>
      <point x="23" y="520" type="line"/>
    </contour>
    <contour>
      <point x="260" y="860" type="move" name="top"/>
    </contour>
  </outline>
</glyph>
<glyph name="h" format="1">
  <advance width="588"/>
  <unicode hex="0068"/>
  <note>
    GF Latin Plus glyph
  </note>
  <outline>
    <contour>
      <point x="76" y="0" type="line"/>
      <point x="155" y="0" type="line"/>
      <point x="155" y="419" type="line"/>
      <point x="211" y="451"/>
      <point x="256" y="471"/>
      <point x="324" y="471" type="curve" smooth="yes"/>
      <point x="394" y="471"/>
      <point x="436" y="422"/>
      <point x="436" y="355" type="curve" smooth="yes"/>
      <point x="436" y="0" type="line"/>
      <point x="515" y="0" type="line"/>
      <point x="515" y="364" type="line" smooth="yes"/>
      <point x="515" y="463"/>
      <point x="464" y="543"/>
      <point x="351" y="543" type="curve" smooth="yes"/>
      <point x="277" y="543"/>
      <point x="204" y="510"/>
      <point x="155" y="475" type="curve"/>
      <point x="155" y="763" type="line"/>
      <point x="76" y="763" type="line"/>
    </contour>
    <contour>
      <point x="163" y="884" type="move" name="top"/>
    </contour>
    <contour>
      <point x="295" y="-150" type="move" name="bottom"/>
    </contour>
  </outline>
</glyph>
<glyph name="i" format="1">
  <advance width="231"/>
  <unicode hex="0069"/>
  <note>
    GF Latin Plus glyph
  </note>
  <outline>
    <contour>
      <point x="72" y="645" type="line" smooth="yes"/>
      <point x="72" y="636"/>
      <point x="78" y="629"/>
      <point x="88" y="629" type="curve" smooth="yes"/>
      <point x="144" y="629" type="line" smooth="yes"/>
      <point x="154" y="629"/>
      <point x="159" y="635"/>
      <point x="159" y="645" type="curve" smooth="yes"/>
      <point x="159" y="723" type="line" smooth="yes"/>
      <point x="159" y="732"/>
      <point x="155" y="739"/>
      <point x="144" y="739" type="curve" smooth="yes"/>
      <point x="88" y="739" type="line" smooth="yes"/>
      <point x="77" y="739"/>
      <point x="72" y="733"/>
      <point x="72" y="723" type="curve" smooth="yes"/>
    </contour>
    <component base="dotlessi"/>
    <contour>
      <point x="145" y="0" type="move" name="ogonek"/>
    </contour>
    <contour>
      <point x="115" y="-150" type="move" name="bottom"/>
    </contour>
  </outline>
</glyph>
<glyph name="l" format="1">
  <advance width="294"/>
  <unicode hex="006C"/>
  <note>
    GF Latin Plus glyph
  </note>
  <outline>
    <contour>
      <point x="76" y="171" type="line" smooth="yes"/>
      <point x="76" y="42"/>
      <point x="125" y="-1"/>
      <point x="216" y="-1" type="curve" smooth="yes"/>
      <point x="284" y="-1" type="line"/>
      <point x="284" y="56" type="line"/>
      <point x="230" y="62" type="line" smooth="yes"/>
      <point x="183" y="68"/>
      <point x="155" y="87"/>
      <point x="155" y="181" type="curve" smooth="yes"/>
      <point x="155" y="763" type="line"/>
      <point x="76" y="763" type="line"/>
    </contour>
    <contour>
      <point x="175" y="650" type="move" name="altcaron"/>
    </contour>
    <contour>
      <point x="115" y="884" type="move" name="top"/>
    </contour>
    <contour>
      <point x="238" y="350" type="move" name="dot"/>
    </contour>
    <contour>
      <point x="166" y="-150" type="move" name="bottom"/>
    </contour>
  </outline>
</glyph>
<glyph name="o" format="1">
  <advance width="577"/>
  <unicode hex="006F"/>
  <note>
    GF Latin Plus glyph
  </note>
  <outline>
    <contour>
      <point x="136" y="268" type="curve" smooth="yes"/>
      <point x="136" y="453"/>
      <point x="188" y="476"/>
      <point x="288" y="476" type="curve" smooth="yes"/>
      <point x="387" y="476"/>
      <point x="440" y="453"/>
      <point x="440" y="268" type="curve" smooth="yes"/>
      <point x="440" y="83"/>
      <point x="387" y="59"/>
      <point x="288" y="59" type="curve" smooth="yes"/>
      <point x="188" y="59"/>
      <point x="136" y="83"/>
    </contour>
    <contour>
      <point x="57" y="268" type="curve" smooth="yes"/>
      <point x="57" y="47"/>
      <point x="132" y="-6"/>
      <point x="288" y="-6" type="curve" smooth="yes"/>
      <point x="444" y="-6"/>
      <point x="520" y="45"/>
      <point x="520" y="268" type="curve" smooth="yes"/>
      <point x="520" y="491"/>
      <point x="443" y="541"/>
      <point x="288" y="541" type="curve" smooth="yes"/>
      <point x="133" y="541"/>
      <point x="57" y="493"/>
    </contour>
    <contour>
      <point x="288" y="650" type="move" name="top"/>
    </contour>
    <contour>
      <point x="330" y="0" type="move" name="ogonek"/>
    </contour>
    <contour>
      <point x="288" y="-150" type="move" name="bottom"/>
    </contour>
  </outline>
</glyph>
<glyph name="r" format="1">
  <advance width="412"/>
  <unicode hex="0072"/>
  <note>
    GF Latin Plus glyph
  </note>
  <outline>
    <contour>
      <point x="76" y="0" type="line"/>
      <point x="155" y="0" type="line"/>
      <point x="155" y="379" type="line"/>
      <point x="211" y="432"/>
      <point x="256" y="459"/>
      <point x="330" y="459" type="curve" smooth="yes"/>
      <point x="350" y="459"/>
      <point x="370" y="456"/>
      <point x="388" y="454" type="curve"/>
      <point x="388" y="535" type="line"/>
      <point x="374" y="538"/>
      <point x="356" y="540"/>
      <point x="338" y="540" type="curve" smooth="yes"/>
      <point x="261" y="540"/>
      <point x="203" y="498"/>
      <point x="155" y="441" type="curve"/>
      <point x="136" y="534" type="line"/>
      <point x="76" y="534" type="line"/>
    </contour>
    <contour>
      <point x="210" y="650" type="move" name="top"/>
    </contour>
    <contour>
      <point x="115" y="-150" type="move" name="bottom"/>
    </contour>
  </outline>
</glyph>
<glyph name="s" format="1">
  <advance width="500"/>
  <unicode hex="0073"/>
  <note>
    GF Latin Plus glyph
  </note>
  <outline>
    <contour>
      <point x="49" y="365" type="line" smooth="yes"/>
      <point x="49" y="264"/>
      <point x="114" y="232"/>
      <point x="209" y="232" type="curve" smooth="yes"/>
      <point x="284" y="232" type="line" smooth="yes"/>
      <point x="352" y="232"/>
      <point x="381" y="205"/>
      <point x="381" y="158" type="curve" smooth="yes"/>
      <point x="381" y="134" type="line" smooth="yes"/>
      <point x="381" y="65"/>
      <point x="338" y="56"/>
      <point x="273" y="56" type="curve" smooth="yes"/>
      <point x="54" y="56" type="line"/>
      <point x="54" y="8" type="line"/>
      <point x="90" y="0"/>
      <point x="207" y="-6"/>
      <point x="260" y="-6" type="curve" smooth="yes"/>
      <point x="373" y="-6"/>
      <point x="451" y="22"/>
      <point x="451" y="130" type="curve" smooth="yes"/>
      <point x="451" y="167" type="line" smooth="yes"/>
      <point x="451" y="252"/>
      <point x="395" y="299"/>
      <point x="298" y="299" type="curve" smooth="yes"/>
      <point x="222" y="299" type="line" smooth="yes"/>
      <point x="159" y="299"/>
      <point x="118" y="309"/>
      <point x="118" y="371" type="curve" smooth="yes"/>
      <point x="118" y="393" type="line" smooth="yes"/>
      <point x="118" y="458"/>
      <point x="156" y="476"/>
      <point x="224" y="476" type="curve" smooth="yes"/>
      <point x="430" y="476" type="line"/>
      <point x="430" y="524" type="line"/>
      <point x="386" y="532"/>
      <point x="292" y="539"/>
      <point x="237" y="539" type="curve" smooth="yes"/>
      <point x="104" y="539"/>
      <point x="49" y="493"/>
      <point x="49" y="393" type="curve" smooth="yes"/>
    </contour>
    <contour>
      <point x="240" y="650" type="move" name="top"/>
    </contour>
    <contour>
      <point x="240" y="-150" type="move" name="bottom"/>
    </contour>
  </outline>
</glyph>
<glyph name="t" format="1">
  <advance width="367"/>
  <unicode hex="0074"/>
  <note>
    GF Latin Plus glyph
  </note>
  <outline>
    <contour>
      <point x="20" y="469" type="line"/>
      <point x="105" y="469" type="line"/>
      <point x="102" y="173" type="line" smooth="yes"/>
      <point x="99" y="48"/>
      <point x="150" y="0"/>
      <point x="253" y="0" type="curve" smooth="yes"/>
      <point x="326" y="0" type="line"/>
      <point x="326" y="58" type="line"/>
      <point x="261" y="64" type="line" smooth="yes"/>
      <point x="226" y="67"/>
      <point x="180" y="81"/>
      <point x="180" y="173" type="curve" smooth="yes"/>
      <point x="180" y="469" type="line"/>
      <point x="334" y="469" type="line"/>
      <point x="334" y="534" type="line"/>
      <point x="180" y="534" type="line"/>
      <point x="180" y="683" type="line"/>
      <point x="119" y="683" type="line"/>
      <point x="106" y="534" type="line"/>
      <point x="20" y="520" type="line"/>
    </contour>
    <contour>
      <point x="200" y="650" type="move" name="altcaron"/>
    </contour>
    <contour>
      <point x="152" y="736" type="move" name="top"/>
    </contour>
    <contour>
      <point x="193" y="-150" type="move" name="bottom"/>
    </contour>
  </outline>
</glyph>
<glyph name="u" format="1">
  <advance width="588"/>
  <unicode hex="0075"/>
  <note>
    GF Latin Plus glyph
  </note>
  <outline>
    <contour>
      <point x="75" y="158" type="line" smooth="yes"/>
      <point x="75" y="46"/>
      <point x="132" y="-6"/>
      <point x="235" y="-6" type="curve" smooth="yes"/>
      <point x="310" y="-6"/>
      <point x="381" y="24"/>
      <point x="436" y="59" type="curve"/>
      <point x="453" y="0" type="line"/>
      <point x="515" y="0" type="line"/>
      <point x="515" y="534" type="line"/>
      <point x="436" y="534" type="line"/>
      <point x="436" y="115" type="line"/>
      <point x="381" y="82"/>
      <point x="332" y="64"/>
      <point x="270" y="64" type="curve" smooth="yes"/>
      <point x="196" y="64"/>
      <point x="154" y="89"/>
      <point x="154" y="178" type="curve" smooth="yes"/>
      <point x="154" y="534" type="line"/>
      <point x="75" y="534" type="line"/>
    </contour>
    <contour>
      <point x="286" y="650" type="move" name="top"/>
    </contour>
    <contour>
      <point x="505" y="0" type="move" name="ogonek"/>
    </contour>
    <contour>
      <point x="286" y="-150" type="move" name="bottom"/>
    </contour>
  </outline>
</glyph>
<glyph name="x" format="1">
  <advance width="507"/>
  <unicode hex="0078"/>
  <note>
    GF Latin Plus glyph
  </note>
  <outline>
    <contour>
      <point x="22" y="0" type="line"/>
      <point x="102" y="0" type="line"/>
      <point x="253" y="218" type="line"/>
      <point x="223" y="289" type="line"/>
    </contour>
    <contour>
      <point x="249" y="306" type="line"/>
      <point x="284" y="243" type="line"/>
      <point x="486" y="534" type="line"/>
      <point x="404" y="533" type="line"/>
    </contour>
    <contour>
      <point x="22" y="534" type="line"/>
      <point x="404" y="0" type="line"/>
      <point x="486" y="0" type="line"/>
      <point x="103" y="534" type="line"/>
    </contour>
  </outline>
</glyph>
<glyph name="braceleft" format="1">
  <advance width="310"/>
  <unicode hex="007B"/>
  <note>
    GF Latin Plus glyph
  </note>
  <outline>
    <contour>
      <point x="22" y="296" type="line"/>
      <point x="62" y="299"/>
      <point x="101" y="273"/>
      <point x="101" y="229" type="curve" smooth="yes"/>
      <point x="101" y="-38" type="line" smooth="yes"/>
      <point x="101" y="-131"/>
      <point x="130" y="-210"/>
      <point x="288" y="-210" type="curve"/>
      <point x="288" y="-148" type="line"/>
      <point x="212" y="-148"/>
      <point x="180" y="-114"/>
      <point x="180" y="-15" type="curve" smooth="yes"/>
      <point x="180" y="244" type="line" smooth="yes"/>
      <point x="180" y="291"/>
      <point x="143" y="326"/>
      <point x="93" y="334" type="curve"/>
      <point x="143" y="340"/>
      <point x="181" y="370"/>
      <point x="181" y="426" type="curve" smooth="yes"/>
      <point x="181" y="630" type="line" smooth="yes"/>
      <point x="181" y="743"/>
      <point x="215" y="777"/>
      <point x="288" y="777" type="curve"/>
      <point x="288" y="842" type="line"/>
      <point x="145" y="842"/>
      <point x="102" y="760"/>
      <point x="102" y="656" type="curve" smooth="yes"/>
      <point x="102" y="438" type="line" smooth="yes"/>
      <point x="102" y="386"/>
      <point x="55" y="374"/>
      <point x="22" y="371" type="curve"/>
    </contour>
  </outline>
</glyph>
<glyph name="copyright" format="1">
  <advance width="841"/>
  <unicode hex="00A9"/>
  <note>
    GF Latin Plus glyph
  </note>
  <outline>
    <contour>
      <point x="237" y="365" type="curve" smooth="yes"/>
      <point x="237" y="188"/>
      <point x="307" y="147"/>
      <point x="388" y="147" type="curve" smooth="yes"/>
      <point x="453" y="147"/>
      <point x="509" y="149"/>
      <point x="569" y="170" type="curve"/>
      <point x="569" y="206" type="line"/>
      <point x="525" y="197"/>
      <point x="466" y="190"/>
      <point x="400" y="190" type="curve" smooth="yes"/>
      <point x="316" y="190"/>
      <point x="284" y="249"/>
      <point x="284" y="362" type="curve" smooth="yes"/>
      <point x="284" y="493"/>
      <point x="326" y="540"/>
      <point x="401" y="540" type="curve" smooth="yes"/>
      <point x="433" y="540"/>
      <point x="502" y="536"/>
      <point x="563" y="528" type="curve"/>
      <point x="563" y="564" type="line"/>
      <point x="508" y="577"/>
      <point x="428" y="583"/>
      <point x="388" y="583" type="curve" smooth="yes"/>
      <point x="300" y="583"/>
      <point x="237" y="526"/>
    </contour>
    <contour>
      <point x="107" y="368" type="curve" smooth="yes"/>
      <point x="109" y="621"/>
      <point x="209" y="689"/>
      <point x="313" y="689" type="curve" smooth="yes"/>
      <point x="551" y="689" type="line" smooth="yes"/>
      <point x="695" y="689"/>
      <point x="734" y="536"/>
      <point x="734" y="368" type="curve" smooth="yes"/>
      <point x="734" y="146"/>
      <point x="653" y="43"/>
      <point x="547" y="43" type="curve" smooth="yes"/>
      <point x="313" y="43" type="line" smooth="yes"/>
      <point x="170" y="43"/>
      <point x="105" y="210"/>
    </contour>
    <contour>
      <point x="60" y="368" type="curve" smooth="yes"/>
      <point x="60" y="206"/>
      <point x="126" y="0"/>
      <point x="313" y="0" type="curve" smooth="yes"/>
      <point x="551" y="0" type="line" smooth="yes"/>
      <point x="702" y="0"/>
      <point x="781" y="154"/>
      <point x="781" y="368" type="curve" smooth="yes"/>
      <point x="781" y="522"/>
      <point x="749" y="732"/>
      <point x="551" y="732" type="curve" smooth="yes"/>
      <point x="313" y="732" type="line" smooth="yes"/>
      <point x="109" y="732"/>
      <point x="60" y="541"/>
    </contour>
  </outline>
</glyph>
<glyph name="threesuperior" format="1">
  <advance width="455"/>
  <unicode hex="00B3"/>
  <note>
    GF Latin Plus glyph
  </note>
  <outline>
    <contour>
      <point x="59" y="760" type="line"/>
      <point x="211" y="760" type="line" smooth="yes"/>
      <point x="283" y="760"/>
      <point x="316" y="732"/>
      <point x="316" y="683" type="curve" smooth="yes"/>
      <point x="316" y="649" type="line" smooth="yes"/>
      <point x="316" y="603"/>
      <point x="282" y="586"/>
      <point x="230" y="583" type="curve" smooth="yes"/>
      <point x="96" y="578" type="line"/>
      <point x="96" y="527" type="line"/>
      <point x="233" y="522" type="line" smooth="yes"/>
      <point x="277" y="520"/>
      <point x="324" y="503"/>
      <point x="324" y="449" type="curve" smooth="yes"/>
      <point x="324" y="416" type="line" smooth="yes"/>
      <point x="324" y="355"/>
      <point x="279" y="340"/>
      <point x="216" y="340" type="curve" smooth="yes"/>
      <point x="41" y="340" type="line"/>
      <point x="41" y="287" type="line"/>
      <point x="92" y="279"/>
      <point x="159" y="276"/>
      <point x="237" y="276" type="curve" smooth="yes"/>
      <point x="336" y="276"/>
      <point x="394" y="322"/>
      <point x="394" y="407" type="curve" smooth="yes"/>
      <point x="394" y="443" type="line" smooth="yes"/>
      <point x="394" y="512"/>
      <point x="343" y="544"/>
      <point x="308" y="552" type="curve"/>
      <point x="340" y="560"/>
      <point x="385" y="586"/>
      <point x="385" y="651" type="curve" smooth="yes"/>
      <point x="385" y="696" type="line" smooth="yes"/>
      <point x="385" y="775"/>
      <point x="335" y="824"/>
      <point x="238" y="824" type="curve" smooth="yes"/>
      <point x="163" y="825"/>
      <point x="106" y="821"/>
      <point x="59" y="813" type="curve"/>
    </contour>
  </outline>
</glyph>
<glyph name="paragraph" format="1">
  <advance width="573"/>
  <unicode hex="00B6"/>
  <note>
    GF Latin Plus glyph
  </note>
  <outline>
    <contour>
      <point x="93" y="469" type="curve" smooth="yes"/>
      <point x="93" y="583" type="line" smooth="yes"/>
      <point x="93" y="641"/>
      <point x="128" y="679"/>
      <point x="203" y="679" type="curve" smooth="yes"/>
      <point x="274" y="679" type="line"/>
      <point x="274" y="367" type="line"/>
      <point x="203" y="367" type="line" smooth="yes"/>
      <point x="174" y="367"/>
      <point x="93" y="377"/>
    </contour>
    <contour>
      <point x="37" y="462" type="line" smooth="yes"/>
      <point x="37" y="380"/>
      <point x="88" y="311"/>
      <point x="195" y="311" type="curve"/>
      <point x="237" y="309"/>
      <point x="264" y="316"/>
      <point x="274" y="323" type="curve"/>
      <point x="274" y="-270" type="line"/>
      <point x="330" y="-270" type="line"/>
      <point x="330" y="679" type="line"/>
      <point x="425" y="679" type="line"/>
      <point x="425" y="0" type="line"/>
      <point x="481" y="0" type="line"/>
      <point x="481" y="677" type="line"/>
      <point x="558" y="677" type="line"/>
      <point x="558" y="736" type="line"/>
      <point x="200" y="736" type="line" smooth="yes"/>
      <point x="114" y="736"/>
      <point x="37" y="691"/>
      <point x="37" y="596" type="curve" smooth="yes"/>
    </contour>
  </outline>
</glyph>
<glyph name="periodcentered" format="1">
  <advance width="262"/>
  <unicode hex="00B7"/>
  <note>
    GF Latin Plus glyph
  </note>
  <outline>
    <contour>
      <point x="93" y="347" type="line" smooth="yes"/>
      <point x="93" y="338"/>
      <point x="100" y="332"/>
      <point x="109" y="332" type="curve" smooth="yes"/>
      <point x="153" y="332" type="line" smooth="yes"/>
      <point x="163" y="332"/>
      <point x="170" y="336"/>
      <point x="170" y="347" type="curve" smooth="yes"/>
      <point x="170" y="394" type="line" smooth="yes"/>
      <point x="170" y="403"/>
      <point x="165" y="410"/>
      <point x="153" y="410" type="curve" smooth="yes"/>
      <point x="109" y="410" type="line" smooth="yes"/>
      <point x="99" y="410"/>
      <point x="93" y="404"/>
      <point x="93" y="394" type="curve" smooth="yes"/>
    </contour>
  </outline>
</glyph>
<glyph name="cedilla" format="1">
  <advance width="258"/>
  <unicode hex="00B8"/>
  <note>
    GF Latin Plus glyph
  </note>
  <outline>
    <contour>
      <point x="55" y="-157" type="line"/>
      <point x="55" y="-190" type="line"/>
      <point x="88" y="-190" type="line" smooth="yes"/>
      <point x="150" y="-190"/>
      <point x="184" y="-163"/>
      <point x="184" y="-118" type="curve" smooth="yes"/>
      <point x="184" y="-76"/>
      <point x="157" y="-54"/>
      <point x="100" y="-54" type="curve"/>
      <point x="67" y="-66" type="line"/>
      <point x="121" y="-68"/>
      <point x="133" y="-88"/>
      <point x="133" y="-110" type="curve" smooth="yes"/>
      <point x="133" y="-138"/>
      <point x="114" y="-151"/>
      <point x="77" y="-155" type="curve" smooth="yes"/>
    </contour>
    <contour>
      <point x="156" y="13" type="line"/>
      <point x="119" y="13" type="line"/>
      <point x="67" y="-66" type="line"/>
      <point x="104" y="-66" type="line"/>
    </contour>
  </outline>
</glyph>
<glyph name="germandbls" format="1">
  <advance width="584"/>
  <unicode hex="00DF"/>
  <note>
    GF Latin Plus glyph
  </note>
  <outline>
    <contour>
      <point x="66" y="0" type="line"/>
      <point x="145" y="0" type="line"/>
      <point x="145" y="541" type="line" smooth="yes"/>
      <point x="145" y="646"/>
      <point x="197" y="701"/>
      <point x="295" y="701" type="curve" smooth="yes"/>
      <point x="386" y="701"/>
      <point x="436" y="667"/>
      <point x="436" y="596" type="curve" smooth="yes"/>
      <point x="436" y="493"/>
      <point x="285" y="454"/>
      <point x="285" y="343" type="curve" smooth="yes"/>
      <point x="285" y="214"/>
      <point x="485" y="256"/>
      <point x="485" y="163" type="curve" smooth="yes"/>
      <point x="485" y="140" type="line" smooth="yes"/>
      <point x="485" y="108"/>
      <point x="466" y="56"/>
      <point x="375" y="56" type="curve" smooth="yes"/>
      <point x="319" y="56"/>
      <point x="264" y="58"/>
      <point x="230" y="60" type="curve"/>
      <point x="230" y="8" type="line"/>
      <point x="263" y="0"/>
      <point x="328" y="-7"/>
      <point x="392" y="-7" type="curve" smooth="yes"/>
      <point x="479" y="-7"/>
      <point x="561" y="35"/>
      <point x="561" y="138" type="curve" smooth="yes"/>
      <point x="561" y="168" type="line" smooth="yes"/>
      <point x="561" y="305"/>
      <point x="361" y="266"/>
      <point x="361" y="355" type="curve" smooth="yes"/>
      <point x="361" y="438"/>
      <point x="511" y="473"/>
      <point x="511" y="601" type="curve" smooth="yes"/>
      <point x="511" y="693"/>
      <point x="453" y="767"/>
      <point x="295" y="767" type="curve" smooth="yes"/>
      <point x="137" y="767"/>
      <point x="66" y="670"/>
      <point x="66" y="548" type="curve" smooth="yes"/>
    </contour>
  </outline>
</glyph>
<glyph name="eth" format="1">
  <advance width="577"/>
  <unicode hex="00F0"/>
  <note>
    GF Latin Plus glyph
  </note>
  <outline>
    <contour>
      <point x="57" y="264" type="curve" smooth="yes"/>
      <point x="57" y="46"/>
      <point x="132" y="-6"/>
      <point x="288" y="-6" type="curve" smooth="yes"/>
      <point x="444" y="-6"/>
      <point x="520" y="45"/>
      <point x="520" y="268" type="curve" smooth="yes"/>
      <point x="520" y="344"/>
      <point x="485" y="386"/>
      <point x="459" y="431" type="curve"/>
      <point x="431" y="509"/>
      <point x="370" y="533"/>
      <point x="279" y="533" type="curve" smooth="yes"/>
      <point x="139" y="533"/>
      <point x="57" y="487"/>
    </contour>
    <contour>
      <point x="136" y="265" type="curve" smooth="yes"/>
      <point x="136" y="447"/>
      <point x="188" y="469"/>
      <point x="288" y="469" type="curve" smooth="yes"/>
      <point x="387" y="469"/>
      <point x="440" y="447"/>
      <point x="440" y="265" type="curve" smooth="yes"/>
      <point x="440" y="82"/>
      <point x="387" y="59"/>
      <point x="288" y="59" type="curve" smooth="yes"/>
      <point x="188" y="59"/>
      <point x="136" y="82"/>
    </contour>
    <contour>
      <point x="148" y="716" type="line"/>
      <point x="338" y="700"/>
      <point x="448" y="608"/>
      <point x="448" y="290" type="curve"/>
      <point x="520" y="267" type="line"/>
      <point x="520" y="637"/>
      <point x="387" y="751"/>
      <point x="148" y="767" type="curve"/>
    </contour>
    <contour>
      <point x="183" y="583" type="line"/>
      <point x="518" y="713" type="line"/>
      <point x="507" y="743" type="line"/>
      <point x="172" y="612" type="line"/>
    </contour>
  </outline>
</glyph>
<glyph name="divide" format="1">
  <advance width="609"/>
  <unicode hex="00F7"/>
  <note>
    GF Latin Plus glyph
  </note>
  <outline>
    <contour>
      <point x="258" y="530" type="line" smooth="yes"/>
      <point x="258" y="516"/>
      <point x="268" y="506"/>
      <point x="282" y="506" type="curve" smooth="yes"/>
      <point x="326" y="506" type="line" smooth="yes"/>
      <point x="340" y="506"/>
      <point x="351" y="512"/>
      <point x="351" y="530" type="curve" smooth="yes"/>
      <point x="351" y="579" type="line" smooth="yes"/>
      <point x="351" y="595"/>
      <point x="344" y="604"/>
      <point x="326" y="604" type="curve" smooth="yes"/>
      <point x="282" y="604" type="line" smooth="yes"/>
      <point x="266" y="604"/>
      <point x="258" y="594"/>
      <point x="258" y="579" type="curve" smooth="yes"/>
    </contour>
    <contour>
      <point x="258" y="131" type="line" smooth="yes"/>
      <point x="258" y="117"/>
      <point x="268" y="108"/>
      <point x="282" y="108" type="curve" smooth="yes"/>
      <point x="326" y="108" type="line" smooth="yes"/>
      <point x="340" y="108"/>
      <point x="351" y="113"/>
      <point x="351" y="131" type="curve" smooth="yes"/>
      <point x="351" y="180" type="line" smooth="yes"/>
      <point x="351" y="196"/>
      <point x="344" y="206"/>
      <point x="326" y="206" type="curve" smooth="yes"/>
      <point x="282" y="206" type="line" smooth="yes"/>
      <point x="266" y="206"/>
      <point x="258" y="196"/>
      <point x="258" y="180" type="curve" smooth="yes"/>
    </contour>
    <component base="minus"/>
  </outline>
</glyph>
<glyph name="hbar" format="1">
  <advance width="588"/>
  <unicode hex="0127"/>
  <note>
    GF Latin Plus glyph
  </note>
  <outline>
    <contour>
      <point x="4" y="629" type="line"/>
      <point x="291" y="629" type="line"/>
      <point x="291" y="664" type="line"/>
      <point x="4" y="664" type="line"/>
    </contour>
    <component base="h"/>
  </outline>
</glyph>
<glyph name="lslash" format="1">
  <advance width="294"/>
  <unicode hex="0142"/>
  <note>
    GF Latin Plus glyph
  </note>
  <outline>
    <contour>
      <point x="3" y="356" type="line"/>
      <point x="76" y="383" type="line"/>
      <point x="155" y="409" type="line"/>
      <point x="257" y="445" type="line"/>
      <point x="257" y="492" type="line"/>
      <point x="155" y="456" type="line"/>
      <point x="76" y="430" type="line"/>
      <point x="3" y="403" type="line"/>
    </contour>
    <component base="l"/>
  </outline>
</glyph>
<glyph name="Eng" format="1">
  <advance width="679"/>
  <unicode hex="014A"/>
  <note>
    GF Latin Plus glyph
  </note>
  <outline>
    <contour>
      <point x="326" y="-220" type="line"/>
      <point x="354" y="-233"/>
      <point x="401" y="-243"/>
      <point x="439" y="-243" type="curve" smooth="yes"/>
      <point x="559" y="-243"/>
      <point x="619" y="-198"/>
      <point x="619" y="-76" type="curve" smooth="yes"/>
      <point x="619" y="41" type="line"/>
      <point x="540" y="41" type="line"/>
      <point x="540" y="-66" type="line" smooth="yes"/>
      <point x="540" y="-151"/>
      <point x="494" y="-172"/>
      <point x="427" y="-172" type="curve" smooth="yes"/>
      <point x="406" y="-172"/>
      <point x="346" y="-165"/>
      <point x="326" y="-159" type="curve"/>
    </contour>
    <component base="N"/>
  </outline>
</glyph>
<glyph name="oe" format="1">
  <advance width="921"/>
  <unicode hex="0153"/>
  <note>
    GF Latin Plus glyph
  </note>
  <outline>
    <contour>
      <point x="514" y="287" type="line"/>
      <point x="514" y="422"/>
      <point x="546" y="481"/>
      <point x="653" y="481" type="curve" smooth="yes"/>
      <point x="747" y="481"/>
      <point x="792" y="463"/>
      <point x="792" y="364" type="curve" smooth="yes"/>
      <point x="792" y="302"/>
      <point x="757" y="287"/>
      <point x="705" y="287" type="curve" smooth="yes"/>
    </contour>
    <contour>
      <point x="449" y="268" type="curve" smooth="yes"/>
      <point x="449" y="69"/>
      <point x="515" y="-6"/>
      <point x="655" y="-6" type="curve" smooth="yes"/>
      <point x="731" y="-6"/>
      <point x="791" y="0"/>
      <point x="850" y="8" type="curve"/>
      <point x="850" y="56" type="line"/>
      <point x="675" y="56" type="line" smooth="yes"/>
      <point x="563" y="56"/>
      <point x="516" y="107"/>
      <point x="515" y="235" type="curve"/>
      <point x="720" y="235" type="line" smooth="yes"/>
      <point x="804" y="235"/>
      <point x="864" y="271"/>
      <point x="864" y="357" type="curve" smooth="yes"/>
      <point x="864" y="509"/>
      <point x="791" y="541"/>
      <point x="653" y="541" type="curve" smooth="yes"/>
      <point x="502" y="541"/>
      <point x="449" y="460"/>
    </contour>
    <contour>
      <point x="136" y="268" type="curve" smooth="yes"/>
      <point x="136" y="456"/>
      <point x="188" y="479"/>
      <point x="288" y="479" type="curve" smooth="yes"/>
      <point x="387" y="479"/>
      <point x="440" y="456"/>
      <point x="440" y="268" type="curve" smooth="yes"/>
      <point x="440" y="80"/>
      <point x="387" y="56"/>
      <point x="288" y="56" type="curve" smooth="yes"/>
      <point x="188" y="56"/>
      <point x="136" y="80"/>
    </contour>
    <contour>
      <point x="57" y="268" type="curve" smooth="yes"/>
      <point x="57" y="47"/>
      <point x="132" y="-6"/>
      <point x="286" y="-6" type="curve" smooth="yes"/>
      <point x="434" y="-6"/>
      <point x="507" y="45"/>
      <point x="507" y="268" type="curve" smooth="yes"/>
      <point x="507" y="491"/>
      <point x="434" y="541"/>
      <point x="288" y="541" type="curve" smooth="yes"/>
      <point x="133" y="541"/>
      <point x="57" y="493"/>
    </contour>
  </outline>
</glyph>
<glyph name="florin" format="1">
  <advance width="609"/>
  <unicode hex="0192"/>
  <note>
    GF Latin Plus glyph
  </note>
  <outline>
    <contour>
      <point x="21" y="-192" type="line"/>
      <point x="40" y="-198"/>
      <point x="76" y="-204"/>
      <point x="112" y="-204" type="curve" smooth="yes"/>
      <point x="227" y="-204"/>
      <point x="273" y="-118"/>
      <point x="306" y="88" type="curve" smooth="yes"/>
      <point x="357" y="402" type="line"/>
      <point x="484" y="402" type="line"/>
      <point x="493" y="460" type="line"/>
      <point x="365" y="460" type="line"/>
      <point x="383" y="566" type="line" smooth="yes"/>
      <point x="403" y="690"/>
      <point x="428" y="737"/>
      <point x="504" y="737" type="curve" smooth="yes"/>
      <point x="569" y="737" type="line"/>
      <point x="577" y="786" type="line"/>
      <point x="564" y="791"/>
      <point x="535" y="799"/>
      <point x="481" y="799" type="curve" smooth="yes"/>
      <point x="372" y="799"/>
      <point x="332" y="731"/>
      <point x="307" y="581" type="curve" smooth="yes"/>
      <point x="285" y="461" type="line"/>
      <point x="192" y="461" type="line"/>
      <point x="184" y="402" type="line"/>
      <point x="278" y="402" type="line"/>
      <point x="224" y="71" type="line" smooth="yes"/>
      <point x="198" y="-92"/>
      <point x="164" y="-142"/>
      <point x="94" y="-142" type="curve" smooth="yes"/>
      <point x="30" y="-142" type="line"/>
    </contour>
  </outline>
</glyph>
<glyph name="dotaccent" format="1">
  <advance width="177"/>
  <unicode hex="02D9"/>
  <note>
    GF Latin Plus glyph
  </note>
  <outline>
    <contour>
      <point x="51" y="669" type="line" smooth="yes"/>
      <point x="51" y="660"/>
      <point x="58" y="653"/>
      <point x="67" y="653" type="curve" smooth="yes"/>
      <point x="104" y="653" type="line" smooth="yes"/>
      <point x="113" y="653"/>
      <point x="119" y="659"/>
      <point x="119" y="669" type="curve" smooth="yes"/>
      <point x="119" y="747" type="line" smooth="yes"/>
      <point x="119" y="756"/>
      <point x="114" y="763"/>
      <point x="104" y="763" type="curve" smooth="yes"/>
      <point x="67" y="763" type="line" smooth="yes"/>
      <point x="56" y="763"/>
      <point x="51" y="757"/>
      <point x="51" y="747" type="curve" smooth="yes"/>
    </contour>
  </outline>
</glyph>
<glyph name="ring" format="1">
  <advance width="332"/>
  <unicode hex="02DA"/>
  <note>
    GF Latin Plus glyph
  </note>
  <outline>
    <contour>
      <point x="94" y="700" type="curve" smooth="yes"/>
      <point x="94" y="758"/>
      <point x="118" y="775"/>
      <point x="167" y="775" type="curve" smooth="yes"/>
      <point x="216" y="775"/>
      <point x="237" y="758"/>
      <point x="237" y="700" type="curve" smooth="yes"/>
      <point x="237" y="643"/>
      <point x="216" y="627"/>
      <point x="167" y="627" type="curve" smooth="yes"/>
      <point x="118" y="627"/>
      <point x="94" y="643"/>
    </contour>
    <contour>
      <point x="55" y="700" type="curve" smooth="yes"/>
      <point x="55" y="620"/>
      <point x="95" y="594"/>
      <point x="167" y="594" type="curve" smooth="yes"/>
      <point x="239" y="594"/>
      <point x="277" y="620"/>
      <point x="277" y="700" type="curve" smooth="yes"/>
      <point x="277" y="781"/>
      <point x="239" y="808"/>
      <point x="167" y="808" type="curve" smooth="yes"/>
      <point x="95" y="808"/>
      <point x="55" y="781"/>
    </contour>
  </outline>
</glyph>
<glyph name="tilde" format="1">
  <advance width="451"/>
  <unicode hex="02DC"/>
  <note>
    GF Latin Plus glyph
  </note>
  <outline>
    <contour>
      <point x="51" y="647" type="curve"/>
      <point x="92" y="647" type="line"/>
      <point x="93" y="689"/>
      <point x="119" y="709"/>
      <point x="151" y="709" type="curve" smooth="yes"/>
      <point x="202" y="709"/>
      <point x="246" y="647"/>
      <point x="307" y="647" type="curve" smooth="yes"/>
      <point x="366" y="647"/>
      <point x="402" y="688"/>
      <point x="403" y="756" type="curve"/>
      <point x="363" y="756" type="line"/>
      <point x="362" y="715"/>
      <point x="336" y="693"/>
      <point x="302" y="693" type="curve" smooth="yes"/>
      <point x="252" y="693"/>
      <point x="211" y="754"/>
      <point x="147" y="754" type="curve" smooth="yes"/>
      <point x="101" y="754"/>
      <point x="53" y="727"/>
    </contour>
  </outline>
</glyph>
<glyph name="emdash" format="1">
  <advance width="745"/>
  <unicode hex="2014"/>
  <note>
    GF Latin Plus glyph
  </note>
  <outline>
    <contour>
      <point x="25" y="256" type="line"/>
      <point x="721" y="256" type="line"/>
      <point x="721" y="323" type="line"/>
      <point x="25" y="323" type="line"/>
    </contour>
  </outline>
</glyph>
<glyph name="ellipsis" format="1">
  <advance width="816"/>
  <unicode hex="2026"/>
  <note>
    GF Latin Plus glyph
  </note>
  <outline>
    <contour>
      <point x="98" y="16" type="line" smooth="yes"/>
      <point x="98" y="6"/>
      <point x="105" y="0"/>
      <point x="114" y="0" type="curve" smooth="yes"/>
      <point x="158" y="0" type="line" smooth="yes"/>
      <point x="167" y="0"/>
      <point x="174" y="4"/>
      <point x="174" y="16" type="curve" smooth="yes"/>
      <point x="174" y="95" type="line" smooth="yes"/>
      <point x="174" y="105"/>
      <point x="169" y="112"/>
      <point x="158" y="112" type="curve" smooth="yes"/>
      <point x="114" y="112" type="line" smooth="yes"/>
      <point x="104" y="112"/>
      <point x="98" y="106"/>
      <point x="98" y="95" type="curve" smooth="yes"/>
    </contour>
    <contour>
      <point x="370" y="16" type="line" smooth="yes"/>
      <point x="370" y="6"/>
      <point x="377" y="0"/>
      <point x="386" y="0" type="curve" smooth="yes"/>
      <point x="430" y="0" type="line" smooth="yes"/>
      <point x="439" y="0"/>
      <point x="446" y="4"/>
      <point x="446" y="16" type="curve" smooth="yes"/>
      <point x="446" y="95" type="line" smooth="yes"/>
      <point x="446" y="105"/>
      <point x="441" y="112"/>
      <point x="430" y="112" type="curve" smooth="yes"/>
      <point x="386" y="112" type="line" smooth="yes"/>
      <point x="376" y="112"/>
      <point x="370" y="106"/>
      <point x="370" y="95" type="curve" smooth="yes"/>
    </contour>
    <contour>
      <point x="642" y="16" type="line" smooth="yes"/>
      <point x="642" y="6"/>
      <point x="649" y="0"/>
      <point x="658" y="0" type="curve" smooth="yes"/>
      <point x="702" y="0" type="line" smooth="yes"/>
      <point x="711" y="0"/>
      <point x="718" y="4"/>
      <point x="718" y="16" type="curve" smooth="yes"/>
      <point x="718" y="95" type="line" smooth="yes"/>
      <point x="718" y="105"/>
      <point x="713" y="112"/>
      <point x="702" y="112" type="curve" smooth="yes"/>
      <point x="658" y="112" type="line" smooth="yes"/>
      <point x="648" y="112"/>
      <point x="642" y="106"/>
      <point x="642" y="95" type="curve" smooth="yes"/>
    </contour>
  </outline>
</glyph>
<glyph name="perthousand" format="1">
  <advance width="1379"/>
  <unicode hex="2030"/>
  <note>
    GF Latin Plus glyph
  </note>
  <outline>
    <contour>
      <point x="1021" y="141" type="curve" smooth="yes"/>
      <point x="1021" y="248" type="line" smooth="yes"/>
      <point x="1021" y="319"/>
      <point x="1050" y="335"/>
      <point x="1110" y="335" type="curve" smooth="yes"/>
      <point x="1195" y="335" type="line" smooth="yes"/>
      <point x="1261" y="335"/>
      <point x="1282" y="311"/>
      <point x="1282" y="248" type="curve" smooth="yes"/>
      <point x="1282" y="141" type="line" smooth="yes"/>
      <point x="1282" y="74"/>
      <point x="1256" y="54"/>
      <point x="1193" y="54" type="curve" smooth="yes"/>
      <point x="1108" y="54" type="line" smooth="yes"/>
      <point x="1045" y="54"/>
      <point x="1021" y="76"/>
    </contour>
    <contour>
      <point x="970" y="131" type="line" smooth="yes"/>
      <point x="970" y="46"/>
      <point x="1002" y="3"/>
      <point x="1100" y="3" type="curve" smooth="yes"/>
      <point x="1201" y="3" type="line" smooth="yes"/>
      <point x="1302" y="3"/>
      <point x="1333" y="46"/>
      <point x="1333" y="131" type="curve" smooth="yes"/>
      <point x="1333" y="258" type="line" smooth="yes"/>
      <point x="1333" y="343"/>
      <point x="1301" y="386"/>
      <point x="1203" y="386" type="curve" smooth="yes"/>
      <point x="1102" y="386" type="line" smooth="yes"/>
      <point x="1001" y="386"/>
      <point x="970" y="343"/>
      <point x="970" y="258" type="curve" smooth="yes"/>
    </contour>
    <contour>
      <point x="601" y="141" type="curve" smooth="yes"/>
      <point x="601" y="248" type="line" smooth="yes"/>
      <point x="601" y="319"/>
      <point x="630" y="335"/>
      <point x="690" y="335" type="curve" smooth="yes"/>
      <point x="775" y="335" type="line" smooth="yes"/>
      <point x="841" y="335"/>
      <point x="862" y="311"/>
      <point x="862" y="248" type="curve" smooth="yes"/>
      <point x="862" y="141" type="line" smooth="yes"/>
      <point x="862" y="74"/>
      <point x="836" y="54"/>
      <point x="773" y="54" type="curve" smooth="yes"/>
      <point x="688" y="54" type="line" smooth="yes"/>
      <point x="625" y="54"/>
      <point x="601" y="76"/>
    </contour>
    <contour>
      <point x="550" y="131" type="line" smooth="yes"/>
      <point x="550" y="46"/>
      <point x="582" y="3"/>
      <point x="680" y="3" type="curve" smooth="yes"/>
      <point x="781" y="3" type="line" smooth="yes"/>
      <point x="882" y="3"/>
      <point x="913" y="46"/>
      <point x="913" y="131" type="curve" smooth="yes"/>
      <point x="913" y="258" type="line" smooth="yes"/>
      <point x="913" y="343"/>
      <point x="881" y="386"/>
      <point x="783" y="386" type="curve" smooth="yes"/>
      <point x="682" y="386" type="line" smooth="yes"/>
      <point x="581" y="386"/>
      <point x="550" y="343"/>
      <point x="550" y="258" type="curve" smooth="yes"/>
    </contour>
    <contour>
      <point x="226" y="0" type="line"/>
      <point x="282" y="0" type="line"/>
      <point x="723" y="732" type="line"/>
      <point x="669" y="732" type="line"/>
    </contour>
    <contour>
      <point x="98" y="487" type="curve" smooth="yes"/>
      <point x="98" y="594" type="line" smooth="yes"/>
      <point x="98" y="665"/>
      <point x="126" y="681"/>
      <point x="187" y="681" type="curve" smooth="yes"/>
      <point x="271" y="681" type="line" smooth="yes"/>
      <point x="338" y="681"/>
      <point x="358" y="657"/>
      <point x="358" y="594" type="curve" smooth="yes"/>
      <point x="358" y="487" type="line" smooth="yes"/>
      <point x="358" y="420"/>
      <point x="332" y="400"/>
      <point x="269" y="400" type="curve" smooth="yes"/>
      <point x="185" y="400" type="line" smooth="yes"/>
      <point x="121" y="400"/>
      <point x="98" y="422"/>
    </contour>
    <contour>
      <point x="46" y="477" type="line" smooth="yes"/>
      <point x="46" y="392"/>
      <point x="79" y="349"/>
      <point x="177" y="349" type="curve" smooth="yes"/>
      <point x="278" y="349" type="line" smooth="yes"/>
      <point x="379" y="349"/>
      <point x="410" y="392"/>
      <point x="410" y="477" type="curve" smooth="yes"/>
      <point x="410" y="604" type="line" smooth="yes"/>
      <point x="410" y="689"/>
      <point x="378" y="732"/>
      <point x="280" y="732" type="curve" smooth="yes"/>
      <point x="179" y="732" type="line" smooth="yes"/>
      <point x="78" y="732"/>
      <point x="46" y="689"/>
      <point x="46" y="604" type="curve" smooth="yes"/>
    </contour>
  </outline>
</glyph>
<glyph name="fraction" format="1">
  <advance width="237"/>
  <unicode hex="2044"/>
  <note>
    GF Latin Plus glyph
  </note>
  <outline>
    <contour>
      <point x="-99" y="0" type="line"/>
      <point x="-40" y="0" type="line"/>
      <point x="335" y="770" type="line"/>
      <point x="277" y="770" type="line"/>
    </contour>
  </outline>
</glyph>
<glyph name="zerosuperior" format="1">
  <advance width="455"/>
  <unicode hex="2070"/>
  <outline>
    <contour>
      <point x="114" y="418" type="curve" smooth="yes"/>
      <point x="114" y="685" type="line" smooth="yes"/>
      <point x="114" y="736"/>
      <point x="147" y="763"/>
      <point x="195" y="763" type="curve" smooth="yes"/>
      <point x="263" y="763" type="line" smooth="yes"/>
      <point x="314" y="763"/>
      <point x="342" y="737"/>
      <point x="342" y="685" type="curve" smooth="yes"/>
      <point x="342" y="418" type="line" smooth="yes"/>
      <point x="342" y="368"/>
      <point x="318" y="340"/>
      <point x="263" y="340" type="curve" smooth="yes"/>
      <point x="195" y="340" type="line" smooth="yes"/>
      <point x="147" y="340"/>
      <point x="114" y="365"/>
    </contour>
    <contour>
      <point x="44" y="409" type="line" smooth="yes"/>
      <point x="44" y="319"/>
      <point x="100" y="278"/>
      <point x="182" y="278" type="curve" smooth="yes"/>
      <point x="278" y="278" type="line" smooth="yes"/>
      <point x="360" y="278"/>
      <point x="412" y="319"/>
      <point x="412" y="409" type="curve" smooth="yes"/>
      <point x="412" y="691" type="line" smooth="yes"/>
      <point x="412" y="771"/>
      <point x="370" y="824"/>
      <point x="278" y="824" type="curve" smooth="yes"/>
      <point x="183" y="824" type="line" smooth="yes"/>
      <point x="101" y="824"/>
      <point x="44" y="778"/>
      <point x="44" y="691" type="curve" smooth="yes"/>
    </contour>
  </outline>
</glyph>
<glyph name="fivesuperior" format="1">
  <advance width="455"/>
  <unicode hex="2075"/>
  <outline>
    <contour>
      <point x="64" y="285" type="line"/>
      <point x="118" y="280"/>
      <point x="188" y="276"/>
      <point x="255" y="276" type="curve" smooth="yes"/>
      <point x="360" y="276"/>
      <point x="429" y="318"/>
      <point x="429" y="408" type="curve" smooth="yes"/>
      <point x="429" y="488" type="line" smooth="yes"/>
      <point x="429" y="558"/>
      <point x="382" y="608"/>
      <point x="297" y="608" type="curve" smooth="yes"/>
      <point x="232" y="608" type="line" smooth="yes"/>
      <point x="187" y="608"/>
      <point x="158" y="591"/>
      <point x="145" y="572" type="curve"/>
      <point x="154" y="759" type="line"/>
      <point x="410" y="759" type="line"/>
      <point x="410" y="820" type="line"/>
      <point x="94" y="820" type="line"/>
      <point x="78" y="495" type="line"/>
      <point x="144" y="495" type="line"/>
      <point x="151" y="534"/>
      <point x="176" y="551"/>
      <point x="219" y="551" type="curve" smooth="yes"/>
      <point x="274" y="551" type="line" smooth="yes"/>
      <point x="330" y="551"/>
      <point x="359" y="523"/>
      <point x="359" y="477" type="curve" smooth="yes"/>
      <point x="359" y="418" type="line" smooth="yes"/>
      <point x="359" y="366"/>
      <point x="313" y="338"/>
      <point x="256" y="338" type="curve" smooth="yes"/>
      <point x="64" y="338" type="line"/>
    </contour>
  </outline>
</glyph>
<glyph name="franc" format="1">
  <advance width="609"/>
  <unicode hex="20A3"/>
  <note>
    GF Latin Plus glyph
  </note>
  <outline>
    <contour>
      <point x="147" y="0" type="line"/>
      <point x="227" y="0" type="line"/>
      <point x="227" y="354" type="line"/>
      <point x="490" y="359" type="line"/>
      <point x="490" y="420" type="line"/>
      <point x="227" y="425" type="line"/>
      <point x="227" y="576" type="line" smooth="yes"/>
      <point x="227" y="633"/>
      <point x="258" y="663"/>
      <point x="311" y="663" type="curve" smooth="yes"/>
      <point x="533" y="663" type="line"/>
      <point x="533" y="726" type="line"/>
      <point x="504" y="730"/>
      <point x="307" y="736"/>
      <point x="292" y="736" type="curve" smooth="yes"/>
      <point x="222" y="737"/>
      <point x="147" y="702"/>
      <point x="147" y="591" type="curve" smooth="yes"/>
    </contour>
    <contour>
      <point x="62" y="144" type="line"/>
      <point x="147" y="139" type="line"/>
      <point x="227" y="139" type="line"/>
      <point x="485" y="144" type="line"/>
      <point x="485" y="198" type="line"/>
      <point x="227" y="203" type="line"/>
      <point x="147" y="203" type="line"/>
      <point x="62" y="198" type="line"/>
    </contour>
  </outline>
</glyph>
<glyph name="peseta" format="1">
  <advance width="609"/>
  <unicode hex="20A7"/>
  <note>
    GF Latin Plus glyph
  </note>
  <outline>
    <contour>
      <point x="170" y="270" type="line"/>
      <point x="170" y="664" type="line"/>
      <point x="337" y="664" type="line" smooth="yes"/>
      <point x="398" y="664"/>
      <point x="452" y="624"/>
      <point x="452" y="470" type="curve" smooth="yes"/>
      <point x="452" y="315"/>
      <point x="397" y="270"/>
      <point x="330" y="270" type="curve" smooth="yes"/>
    </contour>
    <contour>
      <point x="91" y="0" type="line"/>
      <point x="170" y="0" type="line"/>
      <point x="170" y="209" type="line"/>
      <point x="204" y="206"/>
      <point x="303" y="199"/>
      <point x="340" y="199" type="curve" smooth="yes"/>
      <point x="422" y="199"/>
      <point x="532" y="239"/>
      <point x="532" y="471" type="curve" smooth="yes"/>
      <point x="532" y="699"/>
      <point x="428" y="736"/>
      <point x="343" y="736" type="curve" smooth="yes"/>
      <point x="91" y="736" type="line"/>
    </contour>
    <contour>
      <point x="143" y="440" type="line"/>
      <point x="599" y="440" type="line"/>
      <point x="599" y="486" type="line"/>
      <point x="143" y="486" type="line"/>
    </contour>
    <contour>
      <point x="17" y="440" type="line"/>
      <point x="137" y="440" type="line"/>
      <point x="137" y="486" type="line"/>
      <point x="17" y="486" type="line"/>
    </contour>
  </outline>
</glyph>
<glyph name="euro" format="1">
  <advance width="609"/>
  <unicode hex="20AC"/>
  <note>
    GF Latin Plus glyph
  </note>
  <outline>
    <contour>
      <point x="22" y="418" type="line"/>
      <point x="98" y="413" type="line"/>
      <point x="159" y="413" type="line"/>
      <point x="449" y="417" type="line"/>
      <point x="449" y="456" type="line"/>
      <point x="159" y="461" type="line"/>
      <point x="102" y="461" type="line"/>
      <point x="22" y="455" type="line"/>
    </contour>
    <contour>
      <point x="22" y="263" type="line"/>
      <point x="102" y="257" type="line"/>
      <point x="159" y="257" type="line"/>
      <point x="449" y="262" type="line"/>
      <point x="449" y="301" type="line"/>
      <point x="159" y="306" type="line"/>
      <point x="98" y="306" type="line"/>
      <point x="22" y="302" type="line"/>
    </contour>
    <component base="C" xOffset="33"/>
  </outline>
</glyph>
<glyph name="numero" format="1">
  <advance width="1133"/>
  <unicode hex="2116"/>
  <note>
    GF Latin Plus glyph
  </note>
  <outline>
    <contour>
      <point x="91" y="0" type="line"/>
      <point x="170" y="0" type="line"/>
      <point x="170" y="612" type="line" smooth="yes"/>
      <point x="170" y="649"/>
      <point x="186" y="663"/>
      <point x="209" y="663" type="curve" smooth="yes"/>
      <point x="229" y="663"/>
      <point x="243" y="652"/>
      <point x="252" y="627" type="curve" smooth="yes"/>
      <point x="442" y="83" type="line" smooth="yes"/>
      <point x="462" y="22"/>
      <point x="502" y="-6"/>
      <point x="560" y="-6" type="curve" smooth="yes"/>
      <point x="622" y="-6"/>
      <point x="671" y="34"/>
      <point x="671" y="104" type="curve" smooth="yes"/>
      <point x="671" y="537" type="line" smooth="yes"/>
      <point x="671" y="657"/>
      <point x="729" y="682"/>
      <point x="800" y="682" type="curve" smooth="yes"/>
      <point x="933" y="682" type="line" smooth="yes"/>
      <point x="986" y="682"/>
      <point x="1031" y="653"/>
      <point x="1031" y="552" type="curve" smooth="yes"/>
      <point x="1031" y="473"/>
      <point x="1003" y="435"/>
      <point x="940" y="435" type="curve" smooth="yes"/>
      <point x="914" y="435" type="line" smooth="yes"/>
      <point x="858" y="435"/>
      <point x="827" y="474"/>
      <point x="827" y="605" type="curve"/>
      <point x="766" y="605" type="line"/>
      <point x="766" y="430"/>
      <point x="814" y="377"/>
      <point x="911" y="377" type="curve" smooth="yes"/>
      <point x="943" y="377" type="line" smooth="yes"/>
      <point x="1043" y="377"/>
      <point x="1092" y="439"/>
      <point x="1092" y="552" type="curve" smooth="yes"/>
      <point x="1092" y="692"/>
      <point x="1026" y="748"/>
      <point x="935" y="748" type="curve" smooth="yes"/>
      <point x="791" y="748" type="line" smooth="yes"/>
      <point x="684" y="748"/>
      <point x="592" y="702"/>
      <point x="592" y="540" type="curve" smooth="yes"/>
      <point x="592" y="123" type="line" smooth="yes"/>
      <point x="592" y="91"/>
      <point x="577" y="72"/>
      <point x="549" y="72" type="curve" smooth="yes"/>
      <point x="532" y="72"/>
      <point x="516" y="84"/>
      <point x="509" y="103" type="curve" smooth="yes"/>
      <point x="320" y="652" type="line" smooth="yes"/>
      <point x="299" y="712"/>
      <point x="264" y="741"/>
      <point x="201" y="741" type="curve" smooth="yes"/>
      <point x="137" y="741"/>
      <point x="91" y="701"/>
      <point x="91" y="624" type="curve" smooth="yes"/>
    </contour>
  </outline>
</glyph>
<glyph name="partialdiff" format="1">
  <advance width="658"/>
  <unicode hex="2202"/>
  <outline>
    <contour>
      <point x="140" y="229" type="curve" smooth="yes"/>
      <point x="140" y="337"/>
      <point x="204" y="378"/>
      <point x="317" y="378" type="curve" smooth="yes"/>
      <point x="378" y="378"/>
      <point x="456" y="356"/>
      <point x="484" y="341" type="curve"/>
      <point x="484" y="262"/>
      <point x="464" y="67"/>
      <point x="306" y="67" type="curve" smooth="yes"/>
      <point x="220" y="67"/>
      <point x="140" y="116"/>
    </contour>
    <contour>
      <point x="62" y="227" type="curve" smooth="yes"/>
      <point x="62" y="69"/>
      <point x="175" y="-5"/>
      <point x="305" y="-5" type="curve" smooth="yes"/>
      <point x="504" y="-5"/>
      <point x="569" y="178"/>
      <point x="569" y="387" type="curve" smooth="yes"/>
      <point x="569" y="603"/>
      <point x="495" y="740"/>
      <point x="307" y="740" type="curve" smooth="yes"/>
      <point x="223" y="740"/>
      <point x="161" y="713"/>
      <point x="99" y="671" type="curve"/>
      <point x="111" y="613" type="line"/>
      <point x="148" y="636"/>
      <point x="220" y="669"/>
      <point x="299" y="669" type="curve" smooth="yes"/>
      <point x="445" y="669"/>
      <point x="489" y="564"/>
      <point x="489" y="397" type="curve"/>
      <point x="433" y="436"/>
      <point x="354" y="448"/>
      <point x="303" y="448" type="curve" smooth="yes"/>
      <point x="152" y="448"/>
      <point x="62" y="378"/>
    </contour>
  </outline>
</glyph>
<glyph name="increment" format="1">
  <advance width="706"/>
  <unicode hex="2206"/>
  <outline>
    <contour>
      <point x="136" y="71" type="line"/>
      <point x="337" y="651" type="line"/>
      <point x="537" y="71" type="line"/>
    </contour>
    <contour>
      <point x="34" y="0" type="line"/>
      <point x="640" y="0" type="line"/>
      <point x="385" y="736" type="line"/>
      <point x="290" y="736" type="line"/>
    </contour>
  </outline>
</glyph>
<glyph name="product" format="1">
  <advance width="610"/>
  <unicode hex="220F"/>
  <outline>
    <contour>
      <point x="22" y="664" type="line"/>
      <point x="101" y="664" type="line"/>
      <point x="101" y="0" type="line"/>
      <point x="181" y="0" type="line"/>
      <point x="181" y="664" type="line"/>
      <point x="429" y="664" type="line"/>
      <point x="429" y="0" type="line"/>
      <point x="508" y="0" type="line"/>
      <point x="508" y="664" type="line"/>
      <point x="588" y="664" type="line"/>
      <point x="588" y="736" type="line"/>
      <point x="22" y="736" type="line"/>
    </contour>
  </outline>
</glyph>
<glyph name="summation" format="1">
  <advance width="564"/>
  <unicode hex="2211"/>
  <outline>
    <contour>
      <point x="44" y="-124" type="line"/>
      <point x="44" y="-200" type="line"/>
      <point x="543" y="-200" type="line"/>
      <point x="543" y="-126" type="line"/>
      <point x="139" y="-126" type="line"/>
      <point x="352" y="272" type="line"/>
      <point x="140" y="663" type="line"/>
      <point x="543" y="663" type="line"/>
      <point x="543" y="736" type="line"/>
      <point x="44" y="736" type="line"/>
      <point x="44" y="663" type="line"/>
      <point x="258" y="272" type="line"/>
    </contour>
  </outline>
</glyph>
<glyph name="radical" format="1">
  <advance width="622"/>
  <unicode hex="221A"/>
  <outline>
    <contour>
      <point x="22" y="292" type="line"/>
      <point x="98" y="292" type="line"/>
      <point x="231" y="0" type="line"/>
      <point x="306" y="0" type="line"/>
      <point x="600" y="800" type="line"/>
      <point x="515" y="800" type="line"/>
      <point x="262" y="113" type="line"/>
      <point x="153" y="364" type="line"/>
      <point x="22" y="364" type="line"/>
    </contour>
  </outline>
</glyph>
<glyph name="integral" format="1">
  <advance width="451"/>
  <unicode hex="222B"/>
  <outline>
    <contour>
      <point x="22" y="-141" type="line"/>
      <point x="22" y="-190" type="line"/>
      <point x="41" y="-197"/>
      <point x="80" y="-203"/>
      <point x="116" y="-203" type="curve" smooth="yes"/>
      <point x="219" y="-203"/>
      <point x="265" y="-124"/>
      <point x="265" y="-4" type="curve" smooth="yes"/>
      <point x="265" y="612" type="line" smooth="yes"/>
      <point x="265" y="685"/>
      <point x="284" y="737"/>
      <point x="358" y="737" type="curve" smooth="yes"/>
      <point x="429" y="737" type="line"/>
      <point x="429" y="786" type="line"/>
      <point x="413" y="790"/>
      <point x="391" y="799"/>
      <point x="331" y="799" type="curve" smooth="yes"/>
      <point x="227" y="799"/>
      <point x="185" y="726"/>
      <point x="185" y="615" type="curve" smooth="yes"/>
      <point x="185" y="-9" type="line" smooth="yes"/>
      <point x="185" y="-106"/>
      <point x="144" y="-141"/>
      <point x="93" y="-141" type="curve" smooth="yes"/>
    </contour>
  </outline>
</glyph>
<glyph name="approxequal" format="1">
  <advance width="609"/>
  <unicode hex="2248"/>
  <note>
    GF Latin Plus glyph
  </note>
  <outline>
    <contour>
      <point x="80" y="413" type="line"/>
      <point x="110" y="439"/>
      <point x="150" y="453"/>
      <point x="190" y="453" type="curve" smooth="yes"/>
      <point x="262" y="453"/>
      <point x="337" y="413"/>
      <point x="421" y="413" type="curve" smooth="yes"/>
      <point x="478" y="413"/>
      <point x="509" y="435"/>
      <point x="528" y="453" type="curve"/>
      <point x="528" y="519" type="line"/>
      <point x="507" y="499"/>
      <point x="473" y="479"/>
      <point x="418" y="479" type="curve" smooth="yes"/>
      <point x="334" y="479"/>
      <point x="268" y="519"/>
      <point x="187" y="519" type="curve" smooth="yes"/>
      <point x="147" y="519"/>
      <point x="108" y="504"/>
      <point x="80" y="479" type="curve"/>
    </contour>
    <contour>
      <point x="80" y="173" type="line"/>
      <point x="110" y="199"/>
      <point x="150" y="213"/>
      <point x="190" y="213" type="curve" smooth="yes"/>
      <point x="262" y="213"/>
      <point x="337" y="173"/>
      <point x="421" y="173" type="curve" smooth="yes"/>
      <point x="478" y="173"/>
      <point x="509" y="195"/>
      <point x="528" y="213" type="curve"/>
      <point x="528" y="279" type="line"/>
      <point x="507" y="259"/>
      <point x="473" y="239"/>
      <point x="418" y="239" type="curve" smooth="yes"/>
      <point x="334" y="239"/>
      <point x="268" y="279"/>
      <point x="187" y="279" type="curve" smooth="yes"/>
      <point x="147" y="279"/>
      <point x="108" y="264"/>
      <point x="80" y="239" type="curve"/>
    </contour>
  </outline>
</glyph>
<glyph name="s_t" format="1">
  <advance width="859"/>
  <unicode hex="FB06"/>
  <outline>
    <contour>
      <point x="451" y="130" type="curve" smooth="yes"/>
      <point x="451" y="167" type="line" smooth="yes"/>
      <point x="451" y="252"/>
      <point x="395" y="299"/>
      <point x="298" y="299" type="curve" smooth="yes"/>
      <point x="222" y="299" type="line" smooth="yes"/>
      <point x="159" y="299"/>
      <point x="118" y="308"/>
      <point x="118" y="371" type="curve" smooth="yes"/>
      <point x="118" y="393" type="line" smooth="yes"/>
      <point x="118" y="458"/>
      <point x="161" y="476"/>
      <point x="237" y="476" type="curve" smooth="yes"/>
      <point x="595" y="476" type="line"/>
      <point x="592" y="173" type="line" smooth="yes"/>
      <point x="589" y="48"/>
      <point x="640" y="0"/>
      <point x="743" y="0" type="curve" smooth="yes"/>
      <point x="816" y="0" type="line"/>
      <point x="816" y="58" type="line"/>
      <point x="751" y="64" type="line" smooth="yes"/>
      <point x="716" y="68"/>
      <point x="670" y="81"/>
      <point x="670" y="173" type="curve" smooth="yes"/>
      <point x="670" y="469" type="line"/>
      <point x="824" y="469" type="line"/>
      <point x="824" y="534" type="line"/>
      <point x="670" y="534" type="line"/>
      <point x="670" y="683" type="line"/>
      <point x="609" y="683" type="line"/>
      <point x="597" y="529" type="line"/>
      <point x="527" y="533"/>
      <point x="364" y="539"/>
      <point x="267" y="539" type="curve" smooth="yes"/>
      <point x="112" y="539"/>
      <point x="49" y="494"/>
      <point x="49" y="395" type="curve" smooth="yes"/>
      <point x="49" y="365" type="line" smooth="yes"/>
      <point x="49" y="264"/>
      <point x="114" y="232"/>
      <point x="209" y="232" type="curve" smooth="yes"/>
      <point x="284" y="232" type="line" smooth="yes"/>
      <point x="352" y="232"/>
      <point x="381" y="205"/>
      <point x="381" y="158" type="curve" smooth="yes"/>
      <point x="381" y="134" type="line" smooth="yes"/>
      <point x="381" y="65"/>
      <point x="338" y="56"/>
      <point x="273" y="56" type="curve" smooth="yes"/>
      <point x="54" y="56" type="line"/>
      <point x="54" y="8" type="line"/>
      <point x="90" y="0"/>
      <point x="207" y="-6"/>
      <point x="260" y="-6" type="curve" smooth="yes"/>
      <point x="373" y="-6"/>
      <point x="451" y="22"/>
    </contour>
  </outline>
</glyph>
<glyph name="AE.smcp" format="1">
  <advance width="803"/>
  <outline>
    <contour>
      <point x="241" y="208" type="line"/>
      <point x="397" y="460" type="line"/>
      <point x="397" y="208" type="line"/>
    </contour>
    <contour>
      <point x="37" y="0" type="line"/>
      <point x="111" y="0" type="line"/>
      <point x="209" y="150" type="line"/>
      <point x="400" y="150" type="line"/>
      <point x="400" y="91" type="line" smooth="yes"/>
      <point x="400" y="20"/>
      <point x="447" y="-3"/>
      <point x="527" y="-3" type="curve" smooth="yes"/>
      <point x="567" y="-3"/>
      <point x="720" y="2"/>
      <point x="748" y="6" type="curve"/>
      <point x="748" y="60" type="line"/>
      <point x="540" y="60" type="line" smooth="yes"/>
      <point x="492" y="60"/>
      <point x="468" y="78"/>
      <point x="468" y="123" type="curve" smooth="yes"/>
      <point x="468" y="247" type="line"/>
      <point x="712" y="252" type="line"/>
      <point x="712" y="305" type="line"/>
      <point x="468" y="309" type="line"/>
      <point x="468" y="449" type="line" smooth="yes"/>
      <point x="468" y="482"/>
      <point x="480" y="497"/>
      <point x="522" y="497" type="curve" smooth="yes"/>
      <point x="748" y="497" type="line"/>
      <point x="748" y="552" type="line"/>
      <point x="726" y="554"/>
      <point x="554" y="560"/>
      <point x="512" y="560" type="curve" smooth="yes"/>
      <point x="410" y="560"/>
      <point x="364" y="535"/>
      <point x="320" y="460" type="curve" smooth="yes"/>
    </contour>
    <contour>
      <point x="439" y="657" type="move" name="top"/>
    </contour>
  </outline>
</glyph>
<glyph name="G.smcp" format="1">
  <advance width="552"/>
  <outline>
    <contour>
      <point x="57" y="281" type="curve" smooth="yes"/>
      <point x="57" y="90"/>
      <point x="95" y="-4"/>
      <point x="246" y="-4" type="curve" smooth="yes"/>
      <point x="313" y="-3"/>
      <point x="376" y="22"/>
      <point x="413" y="41" type="curve"/>
      <point x="424" y="0" type="line"/>
      <point x="481" y="0" type="line"/>
      <point x="481" y="301" type="line"/>
      <point x="461" y="302"/>
      <point x="435" y="303"/>
      <point x="406" y="303" type="curve" smooth="yes"/>
      <point x="356" y="303"/>
      <point x="303" y="300"/>
      <point x="272" y="296" type="curve"/>
      <point x="272" y="242" type="line"/>
      <point x="414" y="242" type="line"/>
      <point x="414" y="88" type="line"/>
      <point x="378" y="76"/>
      <point x="322" y="62"/>
      <point x="268" y="62" type="curve" smooth="yes"/>
      <point x="162" y="62"/>
      <point x="133" y="110"/>
      <point x="133" y="280" type="curve" smooth="yes"/>
      <point x="133" y="441"/>
      <point x="161" y="500"/>
      <point x="275" y="500" type="curve" smooth="yes"/>
      <point x="346" y="500"/>
      <point x="422" y="493"/>
      <point x="456" y="489" type="curve"/>
      <point x="456" y="544" type="line"/>
      <point x="398" y="556"/>
      <point x="329" y="565"/>
      <point x="262" y="565" type="curve" smooth="yes"/>
      <point x="99" y="565"/>
      <point x="57" y="469"/>
    </contour>
    <contour>
      <point x="276" y="650" type="move" name="top"/>
    </contour>
    <contour>
      <point x="288" y="-150" type="move" name="bottom"/>
    </contour>
  </outline>
</glyph>
<glyph name="N.salt" format="1">
  <advance width="735"/>
  <outline>
    <contour>
      <point x="91" y="0" type="line"/>
      <point x="170" y="0" type="line"/>
      <point x="170" y="614" type="line" smooth="yes"/>
      <point x="170" y="654"/>
      <point x="188" y="664"/>
      <point x="212" y="664" type="curve" smooth="yes"/>
      <point x="231" y="664"/>
      <point x="244" y="652"/>
      <point x="251" y="631" type="curve" smooth="yes"/>
      <point x="441" y="84" type="line" smooth="yes"/>
      <point x="461" y="23"/>
      <point x="493" y="-6"/>
      <point x="556" y="-6" type="curve" smooth="yes"/>
      <point x="621" y="-6"/>
      <point x="671" y="22"/>
      <point x="671" y="110" type="curve" smooth="yes"/>
      <point x="671" y="736" type="line"/>
      <point x="592" y="736" type="line"/>
      <point x="592" y="118" type="line" smooth="yes"/>
      <point x="592" y="81"/>
      <point x="573" y="72"/>
      <point x="552" y="72" type="curve" smooth="yes"/>
      <point x="529" y="72"/>
      <point x="516" y="82"/>
      <point x="509" y="104" type="curve" smooth="yes"/>
      <point x="321" y="648" type="line" smooth="yes"/>
      <point x="302" y="706"/>
      <point x="272" y="742"/>
      <point x="206" y="742" type="curve" smooth="yes"/>
      <point x="141" y="742"/>
      <point x="91" y="713"/>
      <point x="91" y="622" type="curve" smooth="yes"/>
    </contour>
    <contour>
      <point x="388" y="810" type="move" name="top"/>
    </contour>
    <contour>
      <point x="381" y="-150" type="move" name="bottom"/>
    </contour>
  </outline>
</glyph>
<glyph name="N.smcp" format="1">
  <advance width="578"/>
  <outline>
    <contour>
      <point x="81" y="0" type="line"/>
      <point x="157" y="0" type="line"/>
      <point x="157" y="440" type="line"/>
      <point x="454" y="0" type="line"/>
      <point x="516" y="0" type="line"/>
      <point x="516" y="560" type="line"/>
      <point x="440" y="560" type="line"/>
      <point x="440" y="120" type="line"/>
      <point x="143" y="560" type="line"/>
      <point x="81" y="560" type="line"/>
    </contour>
    <contour>
      <point x="289" y="657" type="move" name="top"/>
    </contour>
    <contour>
      <point x="289" y="-150" type="move" name="bottom"/>
    </contour>
  </outline>
</glyph>
<glyph name="Ohorn.smcp" format="1">
  <advance width="580"/>
  <outline>
    <component base="O.smcp"/>
    <component base="horncomb" xOffset="583" yOffset="28"/>
    <contour>
      <point x="290" y="657" type="move" name="top"/>
    </contour>
    <contour>
      <point x="290" y="-150" type="move" name="bottom"/>
    </contour>
  </outline>
</glyph>
<glyph name="R.smcp" format="1">
  <advance width="528"/>
  <outline>
    <contour>
      <point x="72" y="0" type="line"/>
      <point x="148" y="0" type="line"/>
      <point x="148" y="214" type="line"/>
      <point x="191" y="212"/>
      <point x="260" y="211"/>
      <point x="295" y="210" type="curve"/>
      <point x="420" y="0" type="line"/>
      <point x="493" y="0" type="line"/>
      <point x="363" y="225" type="line"/>
      <point x="417" y="237"/>
      <point x="476" y="273"/>
      <point x="476" y="382" type="curve" smooth="yes"/>
      <point x="476" y="513"/>
      <point x="403" y="560"/>
      <point x="311" y="560" type="curve" smooth="yes"/>
      <point x="72" y="560" type="line"/>
    </contour>
    <contour>
      <point x="148" y="269" type="line"/>
      <point x="148" y="498" type="line"/>
      <point x="303" y="498" type="line" smooth="yes"/>
      <point x="364" y="498"/>
      <point x="400" y="458"/>
      <point x="400" y="380" type="curve" smooth="yes"/>
      <point x="400" y="298"/>
      <point x="359" y="269"/>
      <point x="297" y="269" type="curve" smooth="yes"/>
    </contour>
    <contour>
      <point x="248" y="650" type="move" name="top"/>
    </contour>
    <contour>
      <point x="248" y="-150" type="move" name="bottom"/>
    </contour>
  </outline>
</glyph>
<glyph name="b.salt" format="1">
  <advance width="569"/>
  <outline>
    <contour>
      <point x="148" y="59" type="curve"/>
      <point x="148" y="445" type="line"/>
      <point x="207" y="462"/>
      <point x="249" y="473"/>
      <point x="308" y="473" type="curve" smooth="yes"/>
      <point x="399" y="473"/>
      <point x="434" y="408"/>
      <point x="434" y="262" type="curve" smooth="yes"/>
      <point x="434" y="134"/>
      <point x="397" y="57"/>
      <point x="305" y="57" type="curve" smooth="yes"/>
      <point x="298" y="57"/>
      <point x="152" y="58"/>
    </contour>
    <contour>
      <point x="69" y="13" type="line"/>
      <point x="126" y="-1"/>
      <point x="209" y="-10"/>
      <point x="306" y="-10" type="curve" smooth="yes"/>
      <point x="447" y="-10"/>
      <point x="514" y="83"/>
      <point x="514" y="259" type="curve" smooth="yes"/>
      <point x="514" y="430"/>
      <point x="478" y="539"/>
      <point x="330" y="539" type="curve" smooth="yes"/>
      <point x="284" y="539"/>
      <point x="203" y="524"/>
      <point x="148" y="500" type="curve"/>
      <point x="148" y="763" type="line"/>
      <point x="69" y="763" type="line"/>
    </contour>
    <contour>
      <point x="109" y="850" type="move" name="top"/>
    </contour>
  </outline>
</glyph>
<glyph name="c.superior" format="1">
  <advance width="367"/>
  <outline>
    <contour>
      <point x="40" y="475" type="curve" smooth="yes"/>
      <point x="40" y="315"/>
      <point x="109" y="276"/>
      <point x="202" y="276" type="curve" smooth="yes"/>
      <point x="254" y="276"/>
      <point x="304" y="282"/>
      <point x="339" y="289" type="curve"/>
      <point x="339" y="328" type="line"/>
      <point x="223" y="328" type="line" smooth="yes"/>
      <point x="151" y="328"/>
      <point x="110" y="354"/>
      <point x="110" y="474" type="curve" smooth="yes"/>
      <point x="110" y="597"/>
      <point x="148" y="624"/>
      <point x="222" y="624" type="curve" smooth="yes"/>
      <point x="334" y="624" type="line"/>
      <point x="334" y="664" type="line"/>
      <point x="289" y="673"/>
      <point x="245" y="677"/>
      <point x="203" y="677" type="curve" smooth="yes"/>
      <point x="103" y="677"/>
      <point x="40" y="637"/>
    </contour>
    <contour>
      <point x="202" y="756" type="move" name="top"/>
    </contour>
    <contour>
      <point x="202" y="170" type="move" name="bottom"/>
    </contour>
  </outline>
</glyph>
<glyph name="commaturnedabovecomb" format="1">
  <note>
    GF Latin Plus glyph
  </note>
  <outline>
    <contour>
      <point x="-233" y="721" type="line"/>
      <point x="-233" y="753" type="line"/>
      <point x="-271" y="753" type="line" smooth="yes"/>
      <point x="-359" y="753"/>
      <point x="-380" y="715"/>
      <point x="-380" y="614" type="curve"/>
      <point x="-331" y="614" type="line"/>
      <point x="-332" y="699"/>
      <point x="-309" y="709"/>
      <point x="-263" y="716" type="curve" smooth="yes"/>
    </contour>
    <contour>
      <point x="-327" y="650" type="move" name="_top"/>
    </contour>
  </outline>
</glyph>
<glyph name="d.salt" format="1">
  <advance width="568"/>
  <outline>
    <contour>
      <point x="135" y="262" type="curve" smooth="yes"/>
      <point x="135" y="408"/>
      <point x="165" y="476"/>
      <point x="266" y="476" type="curve" smooth="yes"/>
      <point x="322" y="476"/>
      <point x="361" y="467"/>
      <point x="420" y="450" type="curve"/>
      <point x="420" y="63" type="line"/>
      <point x="417" y="60"/>
      <point x="272" y="57"/>
      <point x="264" y="57" type="curve" smooth="yes"/>
      <point x="168" y="57"/>
      <point x="135" y="134"/>
    </contour>
    <contour>
      <point x="56" y="259" type="curve" smooth="yes"/>
      <point x="56" y="80"/>
      <point x="118" y="-10"/>
      <point x="260" y="-10" type="curve" smooth="yes"/>
      <point x="364" y="-10"/>
      <point x="450" y="5"/>
      <point x="500" y="22" type="curve"/>
      <point x="500" y="763" type="line"/>
      <point x="420" y="763" type="line"/>
      <point x="420" y="506" type="line"/>
      <point x="367" y="527"/>
      <point x="289" y="539"/>
      <point x="246" y="539" type="curve" smooth="yes"/>
      <point x="91" y="539"/>
      <point x="56" y="430"/>
    </contour>
    <contour>
      <point x="519" y="650" type="move" name="altcaron"/>
    </contour>
    <contour>
      <point x="376" y="785" type="move" name="top"/>
    </contour>
    <contour>
      <point x="284" y="-150" type="move" name="bottom"/>
    </contour>
  </outline>
</glyph>
<glyph name="d.superior" format="1">
  <advance width="434"/>
  <outline>
    <contour>
      <point x="110" y="476" type="curve" smooth="yes"/>
      <point x="110" y="592"/>
      <point x="139" y="624"/>
      <point x="214" y="624" type="curve" smooth="yes"/>
      <point x="253" y="624"/>
      <point x="280" y="616"/>
      <point x="313" y="606" type="curve"/>
      <point x="313" y="362" type="line"/>
      <point x="286" y="348"/>
      <point x="251" y="331"/>
      <point x="208" y="331" type="curve" smooth="yes"/>
      <point x="138" y="331"/>
      <point x="110" y="370"/>
    </contour>
    <contour>
      <point x="40" y="473" type="curve" smooth="yes"/>
      <point x="40" y="336"/>
      <point x="86" y="276"/>
      <point x="184" y="276" type="curve" smooth="yes"/>
      <point x="229" y="276"/>
      <point x="288" y="298"/>
      <point x="313" y="319" type="curve"/>
      <point x="326" y="280" type="line"/>
      <point x="383" y="280" type="line"/>
      <point x="383" y="854" type="line"/>
      <point x="313" y="854" type="line"/>
      <point x="313" y="655" type="line"/>
      <point x="280" y="666"/>
      <point x="235" y="677"/>
      <point x="191" y="677" type="curve" smooth="yes"/>
      <point x="80" y="677"/>
      <point x="40" y="618"/>
    </contour>
    <contour>
      <point x="398" y="756" type="move" name="altcaron"/>
    </contour>
    <contour>
      <point x="217" y="170" type="move" name="bottom"/>
    </contour>
  </outline>
</glyph>
<glyph name="f.superior" format="1">
  <advance width="279"/>
  <outline>
    <contour>
      <point x="16" y="616" type="line"/>
      <point x="77" y="616" type="line"/>
      <point x="77" y="280" type="line"/>
      <point x="147" y="280" type="line"/>
      <point x="147" y="616" type="line"/>
      <point x="266" y="616" type="line"/>
      <point x="266" y="672" type="line"/>
      <point x="147" y="672" type="line"/>
      <point x="147" y="729" type="line" smooth="yes"/>
      <point x="147" y="777"/>
      <point x="158" y="801"/>
      <point x="208" y="801" type="curve" smooth="yes"/>
      <point x="274" y="801" type="line"/>
      <point x="274" y="849" type="line"/>
      <point x="254" y="853"/>
      <point x="230" y="857"/>
      <point x="196" y="857" type="curve" smooth="yes"/>
      <point x="106" y="857"/>
      <point x="77" y="813"/>
      <point x="77" y="726" type="curve" smooth="yes"/>
      <point x="77" y="672" type="line"/>
      <point x="16" y="660" type="line"/>
    </contour>
  </outline>
</glyph>
<glyph name="five.tosf" format="1">
  <advance width="609"/>
  <outline>
    <contour>
      <point x="90" y="-196" type="line"/>
      <point x="154" y="-203"/>
      <point x="241" y="-207"/>
      <point x="324" y="-207" type="curve" smooth="yes"/>
      <point x="460" y="-207"/>
      <point x="553" y="-149"/>
      <point x="553" y="-29" type="curve" smooth="yes"/>
      <point x="553" y="80" type="line" smooth="yes"/>
      <point x="553" y="174"/>
      <point x="490" y="245"/>
      <point x="375" y="245" type="curve" smooth="yes"/>
      <point x="307" y="245" type="line" smooth="yes"/>
      <point x="244" y="245"/>
      <point x="203" y="219"/>
      <point x="187" y="192" type="curve"/>
      <point x="200" y="462" type="line"/>
      <point x="529" y="462" type="line"/>
      <point x="529" y="534" type="line"/>
      <point x="131" y="534" type="line"/>
      <point x="110" y="93" type="line"/>
      <point x="185" y="93" type="line"/>
      <point x="196" y="151"/>
      <point x="231" y="177"/>
      <point x="292" y="177" type="curve" smooth="yes"/>
      <point x="351" y="177" type="line" smooth="yes"/>
      <point x="433" y="177"/>
      <point x="474" y="135"/>
      <point x="474" y="66" type="curve" smooth="yes"/>
      <point x="474" y="-14" type="line" smooth="yes"/>
      <point x="474" y="-89"/>
      <point x="414" y="-135"/>
      <point x="325" y="-135" type="curve" smooth="yes"/>
      <point x="90" y="-135" type="line"/>
    </contour>
  </outline>
</glyph>
<glyph name="four.oldstyle" format="1">
  <advance width="589"/>
  <outline>
    <contour>
      <point x="52" y="65" type="line"/>
      <point x="71" y="20" type="line"/>
      <point x="422" y="20" type="line"/>
      <point x="422" y="-183" type="line"/>
      <point x="501" y="-183" type="line"/>
      <point x="501" y="20" type="line"/>
      <point x="582" y="37" type="line"/>
      <point x="582" y="89" type="line"/>
      <point x="501" y="89" type="line"/>
      <point x="501" y="336" type="line"/>
      <point x="441" y="336" type="line"/>
      <point x="422" y="248" type="line"/>
      <point x="422" y="89" type="line"/>
      <point x="145" y="89" type="line"/>
      <point x="360" y="536" type="line"/>
      <point x="280" y="536" type="line"/>
    </contour>
  </outline>
</glyph>
<glyph name="four.tosf" format="1">
  <advance width="609"/>
  <outline>
    <contour>
      <point x="73" y="65" type="line"/>
      <point x="92" y="20" type="line"/>
      <point x="442" y="20" type="line"/>
      <point x="442" y="-183" type="line"/>
      <point x="522" y="-183" type="line"/>
      <point x="522" y="20" type="line"/>
      <point x="602" y="37" type="line"/>
      <point x="602" y="89" type="line"/>
      <point x="522" y="89" type="line"/>
      <point x="522" y="336" type="line"/>
      <point x="461" y="336" type="line"/>
      <point x="442" y="248" type="line"/>
      <point x="442" y="89" type="line"/>
      <point x="165" y="89" type="line"/>
      <point x="380" y="536" type="line"/>
      <point x="300" y="536" type="line"/>
    </contour>
  </outline>
</glyph>
<glyph name="h.superior" format="1">
  <advance width="441"/>
  <outline>
    <contour>
      <point x="53" y="280" type="line"/>
      <point x="123" y="280" type="line"/>
      <point x="123" y="580" type="line"/>
      <point x="162" y="602"/>
      <point x="194" y="617"/>
      <point x="241" y="617" type="curve" smooth="yes"/>
      <point x="289" y="617"/>
      <point x="320" y="585"/>
      <point x="320" y="538" type="curve" smooth="yes"/>
      <point x="320" y="280" type="line"/>
      <point x="390" y="280" type="line"/>
      <point x="390" y="545" type="line" smooth="yes"/>
      <point x="390" y="620"/>
      <point x="352" y="678"/>
      <point x="266" y="678" type="curve" smooth="yes"/>
      <point x="212" y="678"/>
      <point x="158" y="654"/>
      <point x="123" y="629" type="curve"/>
      <point x="123" y="854" type="line"/>
      <point x="53" y="854" type="line"/>
    </contour>
  </outline>
</glyph>
<glyph name="k.superior" format="1">
  <advance width="387"/>
  <outline>
    <contour>
      <point x="53" y="280" type="line"/>
      <point x="123" y="280" type="line"/>
      <point x="123" y="458" type="line"/>
      <point x="174" y="458" type="line"/>
      <point x="303" y="280" type="line"/>
      <point x="376" y="280" type="line"/>
      <point x="230" y="489" type="line"/>
      <point x="367" y="672" type="line"/>
      <point x="294" y="672" type="line"/>
      <point x="179" y="520" type="line"/>
      <point x="123" y="520" type="line"/>
      <point x="123" y="854" type="line"/>
      <point x="53" y="854" type="line"/>
    </contour>
    <contour>
      <point x="195" y="170" type="move" name="bottom"/>
    </contour>
  </outline>
</glyph>
<glyph name="micro" format="1">
  <advance width="588"/>
  <note>
    GF Latin Plus glyph
  </note>
  <outline>
    <contour>
      <point x="75" y="231" type="line"/>
      <point x="75" y="-269" type="line"/>
      <point x="154" y="-269" type="line"/>
      <point x="154" y="231" type="line"/>
    </contour>
    <contour>
      <point x="75" y="183" type="line" smooth="yes"/>
      <point x="75" y="68"/>
      <point x="150" y="-6"/>
      <point x="259" y="-6" type="curve" smooth="yes"/>
      <point x="330" y="-6"/>
      <point x="392" y="21"/>
      <point x="439" y="59" type="curve"/>
      <point x="453" y="0" type="line"/>
      <point x="515" y="0" type="line"/>
      <point x="515" y="534" type="line"/>
      <point x="436" y="534" type="line"/>
      <point x="436" y="115" type="line"/>
      <point x="381" y="82"/>
      <point x="335" y="64"/>
      <point x="270" y="64" type="curve" smooth="yes"/>
      <point x="202" y="64"/>
      <point x="154" y="89"/>
      <point x="154" y="178" type="curve" smooth="yes"/>
      <point x="154" y="534" type="line"/>
      <point x="75" y="534" type="line"/>
    </contour>
  </outline>
</glyph>
<glyph name="nine.tnum" format="1">
  <advance width="609"/>
  <outline>
    <contour>
      <point x="475" y="390" type="curve"/>
      <point x="290" y="390" type="line" smooth="yes"/>
      <point x="199" y="390"/>
      <point x="145" y="406"/>
      <point x="145" y="489" type="curve" smooth="yes"/>
      <point x="145" y="567" type="line" smooth="yes"/>
      <point x="145" y="648"/>
      <point x="193" y="668"/>
      <point x="252" y="668" type="curve" smooth="yes"/>
      <point x="338" y="668" type="line" smooth="yes"/>
      <point x="426" y="668"/>
      <point x="475" y="612"/>
    </contour>
    <contour>
      <point x="554" y="369" type="curve" smooth="yes"/>
      <point x="554" y="667"/>
      <point x="476" y="740"/>
      <point x="351" y="740" type="curve" smooth="yes"/>
      <point x="237" y="740" type="line" smooth="yes"/>
      <point x="143" y="740"/>
      <point x="67" y="697"/>
      <point x="67" y="579" type="curve" smooth="yes"/>
      <point x="67" y="476" type="line" smooth="yes"/>
      <point x="67" y="364"/>
      <point x="139" y="322"/>
      <point x="272" y="322" type="curve" smooth="yes"/>
      <point x="328" y="322"/>
      <point x="415" y="324"/>
      <point x="475" y="332" type="curve"/>
      <point x="475" y="154"/>
      <point x="407" y="67"/>
      <point x="293" y="67" type="curve" smooth="yes"/>
      <point x="111" y="67" type="line"/>
      <point x="111" y="6" type="line"/>
      <point x="163" y="0"/>
      <point x="237" y="-5"/>
      <point x="294" y="-5" type="curve" smooth="yes"/>
      <point x="458" y="-5"/>
      <point x="554" y="105"/>
    </contour>
  </outline>
</glyph>
<glyph name="o.superior" format="1">
  <advance width="431"/>
  <outline>
    <contour>
      <point x="110" y="477" type="curve" smooth="yes"/>
      <point x="110" y="609"/>
      <point x="146" y="624"/>
      <point x="215" y="624" type="curve" smooth="yes"/>
      <point x="283" y="624"/>
      <point x="321" y="609"/>
      <point x="321" y="477" type="curve" smooth="yes"/>
      <point x="321" y="345"/>
      <point x="283" y="328"/>
      <point x="215" y="328" type="curve" smooth="yes"/>
      <point x="146" y="328"/>
      <point x="110" y="345"/>
    </contour>
    <contour>
      <point x="40" y="476" type="curve" smooth="yes"/>
      <point x="40" y="317"/>
      <point x="95" y="276"/>
      <point x="215" y="276" type="curve" smooth="yes"/>
      <point x="336" y="276"/>
      <point x="391" y="314"/>
      <point x="391" y="476" type="curve" smooth="yes"/>
      <point x="391" y="639"/>
      <point x="334" y="677"/>
      <point x="215" y="677" type="curve" smooth="yes"/>
      <point x="96" y="677"/>
      <point x="40" y="641"/>
    </contour>
    <contour>
      <point x="215" y="756" type="move" name="top"/>
    </contour>
    <contour>
      <point x="249" y="280" type="move" name="ogonek"/>
    </contour>
    <contour>
      <point x="215" y="170" type="move" name="bottom"/>
    </contour>
  </outline>
</glyph>
<glyph name="one.tnum" format="1">
  <advance width="609"/>
  <outline>
    <contour>
      <point x="94" y="71" type="line"/>
      <point x="94" y="0" type="line"/>
      <point x="537" y="0" type="line"/>
      <point x="537" y="71" type="line"/>
    </contour>
    <contour>
      <point x="104" y="624" type="line"/>
      <point x="275" y="668" type="line"/>
      <point x="275" y="0" type="line"/>
      <point x="355" y="0" type="line"/>
      <point x="355" y="743" type="line"/>
      <point x="282" y="743" type="line"/>
      <point x="104" y="675" type="line"/>
    </contour>
  </outline>
</glyph>
<glyph name="p.salt" format="1">
  <advance width="569"/>
  <outline>
    <contour>
      <point x="148" y="88" type="curve"/>
      <point x="148" y="475" type="line"/>
      <point x="152" y="476"/>
      <point x="299" y="478"/>
      <point x="306" y="478" type="curve" smooth="yes"/>
      <point x="400" y="478"/>
      <point x="434" y="397"/>
      <point x="434" y="269" type="curve" smooth="yes"/>
      <point x="434" y="130"/>
      <point x="399" y="63"/>
      <point x="305" y="63" type="curve" smooth="yes"/>
      <point x="249" y="63"/>
      <point x="208" y="72"/>
    </contour>
    <contour>
      <point x="69" y="-259" type="line"/>
      <point x="148" y="-259" type="line"/>
      <point x="148" y="29" type="line"/>
      <point x="203" y="6"/>
      <point x="284" y="-5"/>
      <point x="328" y="-5" type="curve" smooth="yes"/>
      <point x="481" y="-5"/>
      <point x="514" y="111"/>
      <point x="514" y="272" type="curve" smooth="yes"/>
      <point x="514" y="447"/>
      <point x="458" y="545"/>
      <point x="312" y="545" type="curve" smooth="yes"/>
      <point x="207" y="545"/>
      <point x="129" y="535"/>
      <point x="69" y="515" type="curve"/>
    </contour>
    <contour>
      <point x="276" y="650" type="move" name="top"/>
    </contour>
  </outline>
</glyph>
<glyph name="parenleft.smcp" format="1">
  <advance width="311"/>
  <outline>
    <contour>
      <point x="73" y="274" type="curve" smooth="yes"/>
      <point x="73" y="47"/>
      <point x="179" y="-101"/>
      <point x="212" y="-134" type="curve"/>
      <point x="282" y="-134" type="line"/>
      <point x="248" y="-81"/>
      <point x="149" y="69"/>
      <point x="149" y="274" type="curve" smooth="yes"/>
      <point x="149" y="468"/>
      <point x="255" y="639"/>
      <point x="282" y="681" type="curve"/>
      <point x="212" y="681" type="line"/>
      <point x="182" y="648"/>
      <point x="73" y="478"/>
    </contour>
  </outline>
</glyph>
<glyph name="rupeeIndian" format="1">
  <advance width="609"/>
  <note>
    GF Latin Plus glyph
  </note>
  <outline>
    <contour>
      <point x="214" y="690" type="line"/>
      <point x="579" y="690" type="line"/>
      <point x="579" y="736" type="line"/>
      <point x="214" y="736" type="line"/>
    </contour>
    <contour>
      <point x="58" y="487" type="line"/>
      <point x="579" y="487" type="line"/>
      <point x="579" y="533" type="line"/>
      <point x="58" y="533" type="line"/>
    </contour>
    <contour>
      <point x="58" y="664" type="line"/>
      <point x="259" y="664" type="line" smooth="yes"/>
      <point x="317" y="664"/>
      <point x="369" y="639"/>
      <point x="369" y="513" type="curve" smooth="yes"/>
      <point x="369" y="378"/>
      <point x="310" y="353"/>
      <point x="245" y="353" type="curve" smooth="yes"/>
      <point x="58" y="353" type="line"/>
      <point x="58" y="289" type="line"/>
      <point x="95" y="287"/>
      <point x="201" y="286"/>
      <point x="229" y="285" type="curve"/>
      <point x="374" y="0" type="line"/>
      <point x="459" y="0" type="line"/>
      <point x="309" y="292" type="line"/>
      <point x="370" y="305"/>
      <point x="448" y="341"/>
      <point x="448" y="513" type="curve" smooth="yes"/>
      <point x="448" y="702"/>
      <point x="344" y="736"/>
      <point x="257" y="736" type="curve" smooth="yes"/>
      <point x="58" y="736" type="line"/>
    </contour>
  </outline>
</glyph>
<glyph name="rupeeIndian.smcp" format="1">
  <advance width="515"/>
  <outline>
    <contour>
      <point x="185" y="521" type="line"/>
      <point x="478" y="521" type="line"/>
      <point x="478" y="560" type="line"/>
      <point x="185" y="560" type="line"/>
    </contour>
    <contour>
      <point x="58" y="364" type="line"/>
      <point x="478" y="364" type="line"/>
      <point x="478" y="404" type="line"/>
      <point x="58" y="404" type="line"/>
    </contour>
    <contour>
      <point x="58" y="495" type="line"/>
      <point x="215" y="495" type="line" smooth="yes"/>
      <point x="260" y="495"/>
      <point x="299" y="476"/>
      <point x="299" y="386" type="curve" smooth="yes"/>
      <point x="299" y="290"/>
      <point x="254" y="270"/>
      <point x="205" y="270" type="curve" smooth="yes"/>
      <point x="58" y="270" type="line"/>
      <point x="58" y="211" type="line"/>
      <point x="84" y="211"/>
      <point x="171" y="209"/>
      <point x="191" y="209" type="curve"/>
      <point x="304" y="0" type="line"/>
      <point x="386" y="0" type="line"/>
      <point x="267" y="216" type="line"/>
      <point x="316" y="228"/>
      <point x="375" y="256"/>
      <point x="375" y="386" type="curve" smooth="yes"/>
      <point x="375" y="532"/>
      <point x="289" y="560"/>
      <point x="217" y="560" type="curve" smooth="yes"/>
      <point x="58" y="560" type="line"/>
    </contour>
  </outline>
</glyph>
<glyph name="seven.tnum" format="1">
  <advance width="609"/>
  <outline>
    <contour>
      <point x="66" y="656" type="line"/>
      <point x="438" y="656" type="line"/>
      <point x="181" y="0" type="line"/>
      <point x="269" y="0" type="line"/>
      <point x="538" y="695" type="line"/>
      <point x="512" y="736" type="line"/>
      <point x="66" y="736" type="line"/>
    </contour>
  </outline>
</glyph>
<glyph name="t_y" format="1">
  <advance width="908"/>
  <outline>
    <contour>
      <point x="334" y="469" type="line"/>
      <point x="384" y="469"/>
      <point x="410" y="446"/>
      <point x="424" y="397" type="curve" smooth="yes"/>
      <point x="514" y="125" type="line" smooth="yes"/>
      <point x="544" y="28"/>
      <point x="602" y="1"/>
      <point x="655" y="0" type="curve"/>
      <point x="583" y="-238" type="line"/>
      <point x="645" y="-238" type="line"/>
      <point x="692" y="-138" type="line"/>
      <point x="890" y="534" type="line"/>
      <point x="809" y="534" type="line"/>
      <point x="671" y="68" type="line"/>
      <point x="666" y="68"/>
      <point x="615" y="62"/>
      <point x="589" y="142" type="curve" smooth="yes"/>
      <point x="501" y="419" type="line" smooth="yes"/>
      <point x="478" y="504"/>
      <point x="430" y="534"/>
      <point x="334" y="534" type="curve"/>
    </contour>
    <component base="t"/>
  </outline>
</glyph>
<glyph name="tbar.salt" format="1">
  <advance width="337"/>
  <outline>
    <contour>
      <point x="17" y="274" type="line"/>
      <point x="290" y="274" type="line"/>
      <point x="290" y="309" type="line"/>
      <point x="17" y="309" type="line"/>
    </contour>
    <component base="t.salt"/>
  </outline>
</glyph>
<glyph name="three.oldstyle" format="1">
  <advance width="562"/>
  <outline>
    <contour>
      <point x="63" y="465" type="line"/>
      <point x="249" y="465" type="line" smooth="yes"/>
      <point x="347" y="465"/>
      <point x="395" y="424"/>
      <point x="395" y="351" type="curve" smooth="yes"/>
      <point x="395" y="302" type="line" smooth="yes"/>
      <point x="395" y="234"/>
      <point x="346" y="209"/>
      <point x="274" y="206" type="curve" smooth="yes"/>
      <point x="112" y="198" type="line"/>
      <point x="112" y="140" type="line"/>
      <point x="277" y="133" type="line" smooth="yes"/>
      <point x="339" y="130"/>
      <point x="405" y="105"/>
      <point x="405" y="27" type="curve" smooth="yes"/>
      <point x="405" y="-22" type="line" smooth="yes"/>
      <point x="405" y="-113"/>
      <point x="341" y="-134"/>
      <point x="256" y="-134" type="curve" smooth="yes"/>
      <point x="38" y="-134" type="line"/>
      <point x="38" y="-195" type="line"/>
      <point x="100" y="-203"/>
      <point x="185" y="-208"/>
      <point x="282" y="-208" type="curve" smooth="yes"/>
      <point x="410" y="-208"/>
      <point x="486" y="-147"/>
      <point x="486" y="-34" type="curve" smooth="yes"/>
      <point x="486" y="17" type="line" smooth="yes"/>
      <point x="486" y="114"/>
      <point x="411" y="159"/>
      <point x="367" y="169" type="curve"/>
      <point x="407" y="178"/>
      <point x="474" y="212"/>
      <point x="474" y="304" type="curve" smooth="yes"/>
      <point x="474" y="367" type="line" smooth="yes"/>
      <point x="474" y="470"/>
      <point x="410" y="539"/>
      <point x="279" y="540" type="curve" smooth="yes"/>
      <point x="189" y="540"/>
      <point x="118" y="533"/>
      <point x="63" y="526" type="curve"/>
    </contour>
  </outline>
</glyph>
<glyph name="three.tnum" format="1">
  <advance width="609"/>
  <outline>
    <contour>
      <point x="81" y="667" type="line"/>
      <point x="290" y="667" type="line" smooth="yes"/>
      <point x="389" y="667"/>
      <point x="436" y="626"/>
      <point x="436" y="553" type="curve" smooth="yes"/>
      <point x="436" y="504" type="line" smooth="yes"/>
      <point x="436" y="436"/>
      <point x="388" y="411"/>
      <point x="316" y="408" type="curve" smooth="yes"/>
      <point x="130" y="400" type="line"/>
      <point x="130" y="342" type="line"/>
      <point x="319" y="335" type="line" smooth="yes"/>
      <point x="380" y="333"/>
      <point x="446" y="307"/>
      <point x="446" y="229" type="curve" smooth="yes"/>
      <point x="446" y="180" type="line" smooth="yes"/>
      <point x="446" y="89"/>
      <point x="382" y="68"/>
      <point x="297" y="68" type="curve" smooth="yes"/>
      <point x="56" y="68" type="line"/>
      <point x="56" y="7" type="line"/>
      <point x="124" y="-1"/>
      <point x="217" y="-6"/>
      <point x="323" y="-6" type="curve" smooth="yes"/>
      <point x="452" y="-6"/>
      <point x="527" y="55"/>
      <point x="527" y="168" type="curve" smooth="yes"/>
      <point x="527" y="219" type="line" smooth="yes"/>
      <point x="527" y="316"/>
      <point x="453" y="361"/>
      <point x="409" y="371" type="curve"/>
      <point x="449" y="379"/>
      <point x="515" y="414"/>
      <point x="515" y="506" type="curve" smooth="yes"/>
      <point x="515" y="569" type="line" smooth="yes"/>
      <point x="515" y="672"/>
      <point x="451" y="741"/>
      <point x="320" y="742" type="curve" smooth="yes"/>
      <point x="221" y="742"/>
      <point x="141" y="736"/>
      <point x="81" y="728" type="curve"/>
    </contour>
  </outline>
</glyph>
<glyph name="two.tosf" format="1">
  <advance width="609"/>
  <outline>
    <contour>
      <point x="124" y="468" type="line"/>
      <point x="314" y="468" type="line" smooth="yes"/>
      <point x="402" y="468"/>
      <point x="436" y="438"/>
      <point x="436" y="381" type="curve" smooth="yes"/>
      <point x="436" y="324"/>
      <point x="395" y="278"/>
      <point x="280" y="189" type="curve" smooth="yes"/>
      <point x="108" y="59" type="line"/>
      <point x="108" y="0" type="line"/>
      <point x="539" y="0" type="line"/>
      <point x="539" y="71" type="line"/>
      <point x="228" y="71" type="line"/>
      <point x="356" y="170" type="line" smooth="yes"/>
      <point x="470" y="258"/>
      <point x="516" y="324"/>
      <point x="516" y="394" type="curve" smooth="yes"/>
      <point x="516" y="488"/>
      <point x="461" y="540"/>
      <point x="326" y="540" type="curve" smooth="yes"/>
      <point x="247" y="540"/>
      <point x="170" y="534"/>
      <point x="124" y="529" type="curve"/>
    </contour>
  </outline>
</glyph>
<glyph name="u.superior" format="1">
  <advance width="441"/>
  <outline>
    <contour>
      <point x="53" y="396" type="line" smooth="yes"/>
      <point x="53" y="315"/>
      <point x="96" y="276"/>
      <point x="171" y="276" type="curve" smooth="yes"/>
      <point x="227" y="276"/>
      <point x="279" y="298"/>
      <point x="319" y="322" type="curve"/>
      <point x="333" y="280" type="line"/>
      <point x="389" y="280" type="line"/>
      <point x="389" y="672" type="line"/>
      <point x="319" y="672" type="line"/>
      <point x="319" y="372" type="line"/>
      <point x="281" y="349"/>
      <point x="246" y="336"/>
      <point x="204" y="336" type="curve" smooth="yes"/>
      <point x="152" y="336"/>
      <point x="123" y="352"/>
      <point x="123" y="414" type="curve" smooth="yes"/>
      <point x="123" y="672" type="line"/>
      <point x="53" y="672" type="line"/>
    </contour>
    <contour>
      <point x="215" y="756" type="move" name="top"/>
    </contour>
    <contour>
      <point x="381" y="280" type="move" name="ogonek"/>
    </contour>
    <contour>
      <point x="215" y="170" type="move" name="bottom"/>
    </contour>
  </outline>
</glyph>
<glyph name="w.salt" format="1">
  <advance width="797"/>
  <outline>
    <contour>
      <point x="19" y="534" type="line"/>
      <point x="181" y="0" type="line"/>
      <point x="266" y="0" type="line"/>
      <point x="397" y="334" type="line"/>
      <point x="530" y="0" type="line"/>
      <point x="617" y="0" type="line"/>
      <point x="778" y="534" type="line"/>
      <point x="697" y="534" type="line"/>
      <point x="570" y="74" type="line"/>
      <point x="440" y="408" type="line"/>
      <point x="480" y="534" type="line"/>
      <point x="399" y="534" type="line"/>
      <point x="231" y="74" type="line"/>
      <point x="100" y="534" type="line"/>
    </contour>
    <contour>
      <point x="416" y="650" type="move" name="top"/>
    </contour>
    <contour>
      <point x="416" y="-150" type="move" name="bottom"/>
    </contour>
  </outline>
</glyph>
<glyph name="x.salt" format="1">
  <advance width="554"/>
  <outline>
    <contour>
      <point x="447" y="0" type="line"/>
      <point x="533" y="0" type="line"/>
      <point x="389" y="218" type="line" smooth="yes"/>
      <point x="374" y="241"/>
      <point x="370" y="260"/>
      <point x="370" y="278" type="curve" smooth="yes"/>
      <point x="370" y="297"/>
      <point x="376" y="317"/>
      <point x="396" y="343" type="curve" smooth="yes"/>
      <point x="533" y="534" type="line"/>
      <point x="447" y="534" type="line"/>
      <point x="333" y="380" type="line" smooth="yes"/>
      <point x="306" y="343"/>
      <point x="294" y="309"/>
      <point x="294" y="276" type="curve" smooth="yes"/>
      <point x="294" y="246"/>
      <point x="302" y="214"/>
      <point x="323" y="182" type="curve" smooth="yes"/>
    </contour>
    <contour>
      <point x="22" y="0" type="line"/>
      <point x="107" y="0" type="line"/>
      <point x="231" y="182" type="line" smooth="yes"/>
      <point x="252" y="213"/>
      <point x="258" y="245"/>
      <point x="258" y="276" type="curve" smooth="yes"/>
      <point x="258" y="309"/>
      <point x="248" y="344"/>
      <point x="221" y="380" type="curve" smooth="yes"/>
      <point x="107" y="534" type="line"/>
      <point x="22" y="534" type="line"/>
      <point x="158" y="343" type="line" smooth="yes"/>
      <point x="176" y="319"/>
      <point x="183" y="298"/>
      <point x="183" y="277" type="curve" smooth="yes"/>
      <point x="183" y="260"/>
      <point x="180" y="240"/>
      <point x="165" y="218" type="curve" smooth="yes"/>
    </contour>
    <contour>
      <point x="278" y="650" type="move" name="top"/>
    </contour>
    <contour>
      <point x="278" y="-150" type="move" name="bottom"/>
    </contour>
  </outline>
</glyph>
